<svg id="svg" version="1.1" xmlns="http://www.w3.org/2000/svg" xmlns:xlink="http://www.w3.org/1999/xlink" width="400" height="392.4528301886793" viewBox="0, 0, 400,392.4528301886793"><g id="svgg"><path id="path0" d="M180.962 1.911 L 180.962 3.822 179.293 4.060 C 178.376 4.191,174.092 4.752,169.774 5.307 C 155.056 7.198,149.871 8.395,143.168 11.451 C 140.969 12.453,136.938 13.713,132.033 14.931 C 127.805 15.981,124.056 17.077,123.704 17.367 C 123.351 17.657,122.350 18.513,121.481 19.270 C 120.611 20.026,118.050 21.420,115.789 22.367 C 111.596 24.123,110.283 24.870,107.164 27.272 C 106.192 28.020,103.785 29.261,101.814 30.030 C 99.273 31.021,97.592 31.986,96.038 33.345 C 94.833 34.400,92.206 36.269,90.201 37.500 C 88.160 38.752,85.519 40.808,84.200 42.171 C 82.905 43.511,80.930 45.102,79.812 45.707 C 78.685 46.317,76.812 47.902,75.608 49.265 C 74.413 50.617,72.465 52.271,71.279 52.941 C 69.884 53.728,68.557 54.922,67.527 56.316 C 66.650 57.503,64.962 59.192,63.775 60.069 C 62.380 61.099,61.186 62.426,60.399 63.820 C 59.729 65.007,58.075 66.955,56.723 68.150 C 55.360 69.354,53.775 71.227,53.165 72.354 C 52.560 73.472,50.981 75.447,49.657 76.742 C 48.332 78.037,46.289 80.656,45.116 82.562 C 43.943 84.468,42.062 87.098,40.935 88.407 C 39.466 90.113,38.495 91.790,37.501 94.337 C 36.723 96.330,35.373 98.846,34.422 100.072 C 32.143 103.012,31.306 104.496,30.069 107.794 C 28.988 110.676,27.598 113.009,25.514 115.439 C 24.494 116.628,24.017 118.014,22.410 124.467 C 21.223 129.234,19.917 133.414,18.923 135.623 C 15.899 142.343,14.903 146.423,13.160 159.222 C 12.605 163.298,11.532 170.608,10.774 175.466 C 8.411 190.626,8.447 194.248,11.133 211.187 C 11.869 215.829,12.771 221.923,13.139 224.730 C 14.629 236.119,15.773 241.273,17.908 246.207 C 20.385 251.931,20.743 252.995,22.327 259.333 C 24.182 266.758,24.553 267.668,26.845 270.431 C 27.816 271.602,29.003 273.633,29.483 274.945 C 30.802 278.553,32.081 280.947,34.094 283.581 C 35.097 284.893,36.252 286.762,36.661 287.733 C 38.760 292.719,39.670 294.403,40.961 295.694 C 41.739 296.472,43.111 298.311,44.010 299.781 C 46.216 303.386,47.268 304.782,49.865 307.556 C 51.077 308.852,52.741 310.972,53.561 312.267 C 54.381 313.562,56.015 315.487,57.192 316.544 C 58.369 317.601,59.866 319.412,60.519 320.570 C 61.172 321.727,62.228 323.070,62.866 323.555 C 65.538 325.585,67.259 327.238,68.347 328.819 C 69.097 329.909,70.456 331.056,72.216 332.084 C 73.714 332.958,75.585 334.469,76.394 335.455 C 77.199 336.438,79.020 337.998,80.440 338.921 C 81.861 339.845,84.366 341.821,86.008 343.313 C 87.649 344.805,90.465 346.896,92.264 347.961 C 94.063 349.025,96.442 350.717,97.549 351.720 C 99.017 353.049,100.581 353.938,103.311 354.996 C 105.372 355.795,108.010 357.142,109.172 357.990 C 112.634 360.516,114.488 361.560,117.511 362.688 C 119.088 363.276,121.221 364.361,122.252 365.098 C 123.282 365.835,124.577 366.735,125.129 367.099 C 126.422 367.951,131.379 369.454,136.605 370.579 C 141.520 371.637,144.989 372.794,148.184 374.440 C 152.688 376.759,156.238 377.428,173.398 379.191 C 179.662 379.835,186.708 380.746,189.057 381.216 C 195.397 382.485,202.829 382.435,210.991 381.066 C 214.446 380.487,221.953 379.552,227.674 378.987 C 241.242 377.648,246.160 376.670,250.911 374.367 C 255.317 372.231,256.910 371.717,263.857 370.185 C 270.168 368.793,272.693 367.863,275.353 365.953 C 277.134 364.673,278.704 363.882,284.387 361.402 C 285.461 360.933,287.176 359.810,288.199 358.906 C 290.069 357.253,292.125 356.161,295.814 354.862 C 298.835 353.798,300.014 353.097,302.109 351.118 C 303.162 350.123,305.077 348.769,306.365 348.110 C 307.652 347.450,309.772 345.896,311.075 344.656 C 312.378 343.417,315.299 341.060,317.566 339.420 C 319.833 337.780,322.483 335.622,323.454 334.624 C 324.426 333.627,326.016 332.354,326.987 331.796 C 329.299 330.469,330.409 329.468,331.550 327.680 C 332.065 326.873,333.628 325.316,335.023 324.219 C 336.629 322.957,338.081 321.368,338.978 319.891 C 339.758 318.607,341.400 316.543,342.626 315.304 C 343.852 314.066,345.899 311.551,347.176 309.715 C 348.453 307.880,350.591 305.228,351.929 303.821 C 353.266 302.415,354.931 300.134,355.628 298.753 C 356.325 297.372,357.758 295.331,358.812 294.216 C 360.347 292.593,361.096 291.269,362.574 287.571 C 363.859 284.352,364.907 282.397,366.031 281.123 C 368.158 278.710,368.659 277.860,369.925 274.524 C 370.511 272.980,371.695 270.595,372.556 269.225 C 375.701 264.218,375.882 263.703,378.604 252.012 C 379.326 248.911,380.263 246.268,381.595 243.570 C 384.370 237.953,384.954 234.752,386.862 214.720 C 387.201 211.158,387.817 206.124,388.231 203.533 C 390.024 192.317,390.024 191.354,388.239 180.569 C 387.477 175.967,387.137 172.941,386.056 161.138 C 384.971 149.290,384.407 146.727,381.513 140.512 C 380.017 137.298,379.197 134.707,377.851 128.932 C 375.916 120.634,375.349 119.105,372.816 115.357 C 371.848 113.926,370.493 111.276,369.804 109.469 C 369.007 107.378,367.758 105.147,366.372 103.336 C 364.984 101.521,363.670 99.172,362.750 96.859 C 360.927 92.274,360.609 91.711,358.609 89.524 C 357.709 88.539,356.223 86.451,355.307 84.884 C 354.391 83.317,352.575 80.844,351.272 79.389 C 349.969 77.933,348.091 75.594,347.098 74.190 C 346.106 72.787,344.115 70.402,342.674 68.891 C 341.233 67.380,339.688 65.425,339.241 64.546 C 338.435 62.963,336.049 60.524,334.489 59.689 C 334.042 59.450,332.958 58.196,332.079 56.901 C 330.903 55.171,329.888 54.215,328.243 53.291 C 327.013 52.601,324.946 50.933,323.651 49.585 C 322.355 48.238,320.218 46.443,318.901 45.596 C 317.584 44.750,315.168 42.838,313.532 41.347 C 311.897 39.856,309.353 37.936,307.880 37.081 C 306.407 36.225,304.221 34.629,303.023 33.534 C 301.560 32.196,299.820 31.117,297.724 30.248 C 293.240 28.388,291.880 27.648,289.373 25.706 C 288.147 24.756,285.936 23.525,284.460 22.971 C 280.661 21.545,279.032 20.654,276.996 18.892 C 274.990 17.156,272.118 16.105,263.984 14.129 C 261.123 13.434,257.203 12.136,255.062 11.174 C 248.616 8.277,245.686 7.562,233.562 5.923 C 230.432 5.500,225.618 4.850,222.866 4.480 L 217.861 3.805 217.861 1.903 L 217.861 0.000 199.411 0.000 L 180.962 0.000 180.962 1.911 M218.698 23.364 C 232.420 24.407,235.578 24.944,239.673 26.936 C 242.200 28.165,244.907 28.930,255.348 31.363 C 257.291 31.816,259.676 32.603,260.648 33.113 C 261.619 33.623,263.474 34.595,264.769 35.273 C 266.065 35.952,268.991 37.214,271.271 38.078 C 274.272 39.215,275.996 40.142,277.510 41.435 C 279.859 43.440,281.368 44.282,285.207 45.726 C 288.488 46.962,290.178 47.967,292.444 50.032 C 293.415 50.917,295.396 52.228,296.846 52.945 C 298.755 53.889,300.080 54.930,301.655 56.724 C 302.850 58.085,304.782 59.738,305.948 60.396 C 307.114 61.054,308.919 62.578,309.960 63.783 C 311.000 64.988,312.651 66.442,313.629 67.015 C 315.905 68.348,323.506 75.998,325.227 78.688 C 325.953 79.822,327.455 81.511,328.566 82.441 C 329.677 83.371,331.117 85.073,331.766 86.223 C 333.040 88.481,334.276 89.874,336.488 91.544 C 337.448 92.269,338.390 93.641,339.452 95.862 C 340.309 97.652,341.790 100.088,342.745 101.276 C 345.149 104.267,345.743 105.272,346.854 108.224 C 348.205 111.811,348.841 112.987,350.532 115.024 C 352.417 117.294,353.704 119.860,355.057 124.043 C 355.650 125.878,356.886 128.793,357.802 130.520 C 359.883 134.441,360.400 136.038,362.127 143.867 C 362.888 147.321,364.199 152.179,365.039 154.661 C 367.258 161.218,367.313 161.499,368.187 170.952 C 369.975 190.289,369.973 194.364,368.162 213.543 C 367.357 222.062,367.254 222.604,365.252 228.852 C 364.111 232.414,362.704 237.537,362.126 240.236 C 360.563 247.528,360.053 249.105,357.960 253.119 C 356.911 255.131,355.675 258.045,355.214 259.596 C 354.211 262.963,352.147 267.182,350.625 268.970 C 349.049 270.823,348.418 271.926,347.459 274.503 C 346.183 277.930,345.200 279.685,343.089 282.304 C 342.035 283.613,340.328 286.361,339.297 288.412 C 337.876 291.237,337.008 292.456,335.718 293.441 C 333.802 294.904,333.104 295.743,331.551 298.443 C 330.958 299.476,329.619 300.977,328.577 301.779 C 327.535 302.582,325.830 304.507,324.789 306.057 C 323.747 307.607,321.993 309.580,320.890 310.441 C 319.787 311.302,318.279 312.798,317.538 313.766 C 316.798 314.733,314.940 316.358,313.409 317.378 C 311.878 318.397,310.023 320.039,309.287 321.026 C 308.466 322.127,306.857 323.480,305.125 324.527 C 303.292 325.634,301.810 326.902,300.900 328.142 C 299.811 329.625,298.779 330.419,296.266 331.703 C 292.754 333.497,291.403 334.362,289.324 336.145 C 288.579 336.784,286.636 337.912,285.006 338.652 C 283.375 339.393,281.133 340.416,280.022 340.926 C 278.912 341.437,277.410 342.371,276.686 343.004 C 274.619 344.807,271.369 346.467,267.389 347.753 C 265.375 348.404,262.589 349.573,261.197 350.351 C 257.804 352.249,255.324 353.062,247.920 354.708 C 244.482 355.472,239.448 356.888,236.733 357.855 C 231.338 359.777,229.138 360.132,214.917 361.375 C 195.061 363.112,169.613 361.182,160.425 357.244 C 159.458 356.829,155.513 355.764,151.659 354.877 C 143.057 352.897,140.350 352.025,137.525 350.324 C 136.318 349.597,133.895 348.525,132.140 347.942 C 127.187 346.295,124.052 344.759,122.245 343.094 C 120.471 341.459,118.517 340.350,115.996 339.548 C 113.346 338.705,110.197 336.962,108.302 335.290 C 107.309 334.414,105.134 333.041,103.470 332.240 C 101.088 331.094,99.970 330.244,98.219 328.250 C 96.996 326.856,95.054 325.185,93.906 324.537 C 92.757 323.888,90.986 322.396,89.972 321.221 C 88.957 320.045,87.243 318.546,86.163 317.889 C 83.875 316.497,76.119 308.973,74.905 306.968 C 74.448 306.212,72.900 304.446,71.465 303.042 C 70.030 301.639,68.299 299.495,67.619 298.277 C 66.935 297.052,65.540 295.387,64.496 294.548 C 62.060 292.590,61.859 292.339,60.282 289.289 C 59.553 287.878,58.169 285.847,57.207 284.775 C 55.302 282.653,54.074 280.417,52.452 276.117 C 51.819 274.438,50.699 272.510,49.630 271.257 C 47.470 268.727,47.120 268.064,44.891 262.278 C 43.922 259.762,42.448 256.644,41.615 255.348 C 40.053 252.918,39.537 251.255,37.321 241.505 C 36.592 238.301,35.530 234.979,34.560 232.869 C 28.557 219.818,28.374 164.461,34.293 151.853 C 35.882 148.466,36.809 145.293,38.288 138.175 C 39.309 133.258,40.514 129.967,41.971 128.115 C 42.399 127.570,43.747 124.590,44.966 121.492 C 46.673 117.152,47.593 115.379,48.972 113.769 C 50.772 111.668,51.449 110.389,53.813 104.631 C 54.712 102.443,55.726 100.824,57.208 99.212 C 58.370 97.948,59.646 96.173,60.044 95.267 C 61.041 92.997,62.450 91.218,64.373 89.804 C 65.272 89.143,66.556 87.621,67.242 86.403 C 67.925 85.192,69.429 83.229,70.584 82.041 C 71.740 80.854,73.798 78.469,75.157 76.742 C 78.001 73.128,81.603 69.589,84.985 67.086 C 86.281 66.127,88.312 64.369,89.500 63.178 C 90.687 61.988,92.658 60.453,93.879 59.769 C 95.228 59.012,96.597 57.830,97.370 56.754 C 98.720 54.873,100.322 53.646,103.324 52.193 C 104.342 51.700,106.124 50.398,107.284 49.299 C 108.901 47.768,110.210 46.986,112.891 45.949 C 117.878 44.021,118.962 43.442,121.289 41.455 C 122.724 40.230,124.514 39.250,127.135 38.255 C 132.113 36.364,135.282 34.899,137.142 33.629 C 138.926 32.411,139.940 32.094,146.222 30.793 C 152.213 29.553,156.969 28.104,159.886 26.631 C 162.917 25.101,168.288 24.196,179.392 23.343 C 197.578 21.945,200.047 21.947,218.698 23.364 M215.309 81.452 C 212.287 81.743,206.016 82.175,201.374 82.412 C 184.917 83.253,179.582 84.050,170.952 86.956 C 168.145 87.901,162.846 89.317,159.176 90.102 C 151.004 91.852,148.599 92.637,145.274 94.645 C 143.852 95.504,141.452 96.569,139.941 97.012 C 138.430 97.455,135.751 98.243,133.988 98.764 C 131.836 99.399,129.813 100.366,127.834 101.702 C 125.914 102.999,123.365 104.230,120.523 105.231 C 115.187 107.110,114.498 107.461,112.266 109.428 C 111.293 110.285,108.503 111.986,106.065 113.209 C 103.222 114.635,100.944 116.096,99.713 117.284 C 98.657 118.303,96.511 119.843,94.944 120.707 C 92.923 121.821,91.632 122.879,90.503 124.345 C 89.627 125.481,87.763 127.183,86.359 128.127 C 84.843 129.147,83.196 130.699,82.300 131.952 C 81.471 133.111,79.922 134.636,78.858 135.340 C 77.573 136.190,76.350 137.514,75.220 139.277 C 74.284 140.738,72.612 142.691,71.505 143.618 C 70.277 144.646,68.996 146.235,68.217 147.695 C 67.516 149.011,65.811 151.321,64.428 152.827 C 62.580 154.841,61.419 156.617,60.047 159.530 C 59.020 161.710,57.613 164.112,56.920 164.868 C 54.812 167.165,53.965 168.481,52.838 171.209 C 52.244 172.646,50.893 175.193,49.834 176.869 C 48.776 178.545,47.542 181.022,47.092 182.373 L 46.275 184.830 47.085 186.418 C 47.531 187.292,48.822 188.719,49.954 189.589 C 51.086 190.459,52.866 191.877,53.910 192.739 C 56.241 194.665,56.763 194.681,59.108 192.891 C 60.129 192.111,61.865 190.893,62.965 190.184 C 65.802 188.355,66.965 186.986,68.141 184.092 C 69.094 181.746,70.074 180.132,73.022 176.055 C 73.646 175.191,74.723 173.094,75.415 171.394 C 76.421 168.923,77.162 167.820,79.109 165.898 C 80.448 164.576,82.054 162.534,82.676 161.360 C 83.298 160.187,84.868 158.057,86.163 156.626 C 87.458 155.196,89.666 152.655,91.070 150.979 C 94.519 146.861,105.066 137.267,108.286 135.320 C 109.720 134.453,111.966 132.744,113.278 131.522 C 114.912 130.000,116.395 129.034,117.988 128.453 C 119.267 127.986,121.173 127.024,122.223 126.314 C 126.954 123.117,128.408 122.368,132.090 121.229 C 136.429 119.887,139.625 118.450,142.872 116.378 C 144.182 115.543,147.397 114.252,151.125 113.065 C 154.483 111.996,158.382 110.510,159.790 109.763 C 162.997 108.061,165.484 107.416,173.706 106.153 C 177.304 105.600,183.368 104.361,187.180 103.401 C 207.173 98.366,240.476 97.937,261.433 102.446 C 264.347 103.073,268.763 103.864,271.246 104.204 C 284.074 105.958,288.319 110.308,286.943 120.290 C 286.145 126.074,285.125 127.490,280.471 129.273 C 278.960 129.852,277.246 130.641,276.662 131.027 C 275.686 131.673,275.308 131.688,271.951 131.219 C 260.073 129.559,242.092 130.199,231.115 132.674 C 227.388 133.514,222.218 134.482,219.627 134.824 C 209.481 136.165,203.818 137.671,198.822 140.355 C 197.095 141.283,194.004 142.520,191.953 143.105 C 186.886 144.549,184.471 145.671,182.462 147.513 C 181.529 148.369,179.352 149.782,177.625 150.653 C 175.740 151.604,173.779 152.973,172.718 154.076 C 171.747 155.087,169.924 156.618,168.669 157.479 C 165.849 159.412,158.290 166.843,156.908 169.041 C 156.347 169.933,155.094 171.314,154.123 172.109 C 152.875 173.132,151.830 174.579,150.551 177.056 C 149.557 178.981,148.014 181.399,147.123 182.428 C 145.328 184.501,144.397 186.423,142.506 191.953 C 141.805 194.004,140.661 196.742,139.963 198.037 C 135.433 206.443,132.235 233.741,134.028 248.687 C 134.338 251.271,134.705 254.799,134.843 256.526 C 135.505 264.807,136.827 269.608,139.546 273.602 C 140.595 275.143,141.773 277.630,142.520 279.882 C 144.139 284.760,144.444 285.307,146.809 287.573 C 147.908 288.627,149.273 290.286,149.842 291.261 C 151.135 293.477,159.095 302.002,160.942 303.150 C 161.698 303.619,163.408 305.016,164.742 306.254 C 166.199 307.606,168.224 308.984,169.812 309.704 C 171.326 310.391,173.350 311.748,174.546 312.879 C 176.979 315.180,177.797 315.560,184.218 317.376 C 187.296 318.247,190.692 319.581,193.719 321.109 C 199.138 323.845,201.589 324.409,210.788 325.033 C 213.922 325.246,217.988 325.589,219.823 325.796 C 234.879 327.497,261.884 324.906,269.376 321.043 C 270.297 320.568,274.516 319.093,278.753 317.765 C 285.222 315.738,286.974 315.018,289.694 313.273 C 291.476 312.130,294.369 310.672,296.123 310.032 C 299.918 308.649,301.209 307.892,303.042 305.975 C 303.851 305.129,306.289 303.596,308.973 302.245 C 314.526 299.450,317.959 294.981,317.959 290.546 C 317.959 287.033,313.948 282.456,310.173 281.662 C 305.801 280.743,305.296 280.825,303.051 282.818 C 300.758 284.855,300.048 285.252,295.741 286.912 C 293.992 287.586,291.607 288.836,290.441 289.691 C 286.438 292.624,285.500 293.159,282.487 294.229 C 280.827 294.819,278.545 295.890,277.418 296.610 C 272.619 299.674,270.006 300.676,263.158 302.075 C 259.510 302.820,253.876 304.124,250.638 304.974 C 237.864 308.326,221.927 308.339,209.617 305.008 C 206.487 304.161,201.243 302.853,197.965 302.101 C 191.445 300.605,190.560 300.251,188.010 298.121 C 187.065 297.331,184.341 295.716,181.958 294.531 C 178.297 292.711,177.166 291.910,174.669 289.368 C 173.043 287.713,170.891 285.695,169.886 284.883 C 168.882 284.070,167.527 282.481,166.876 281.350 C 166.224 280.219,164.598 277.969,163.263 276.349 C 160.580 273.096,159.314 270.670,158.201 266.654 C 157.793 265.184,156.563 261.604,155.466 258.698 C 150.959 246.757,150.873 230.206,155.245 216.487 C 156.415 212.816,157.842 207.782,158.415 205.299 C 159.672 199.859,160.361 198.194,162.311 195.878 C 163.129 194.907,164.807 191.982,166.038 189.378 C 167.958 185.321,168.575 184.395,170.356 182.901 C 171.499 181.942,173.249 179.938,174.244 178.446 C 175.670 176.311,176.598 175.406,178.606 174.192 C 180.010 173.344,182.226 171.625,183.532 170.373 C 185.351 168.627,187.001 167.571,190.595 165.850 C 193.174 164.615,195.864 163.095,196.573 162.472 C 198.552 160.735,200.386 159.962,205.299 158.796 C 214.335 156.652,217.733 155.772,221.197 154.678 C 231.261 151.500,241.639 150.592,264.181 150.919 C 285.940 151.235,286.446 151.143,292.673 145.757 C 294.418 144.248,296.643 142.464,297.617 141.794 C 299.673 140.379,301.468 137.259,303.410 131.726 C 304.087 129.798,305.073 127.413,305.603 126.426 C 307.791 122.350,308.152 110.529,306.171 107.850 C 305.724 107.244,304.420 104.766,303.275 102.344 C 300.043 95.506,295.670 91.247,289.493 88.923 C 288.019 88.368,285.987 87.405,284.977 86.784 C 279.546 83.442,232.247 79.823,215.309 81.452 " stroke="none" fill="#ffffff" fill-rule="evenodd"></path><path id="path1" d="M0.000 196.271 L 0.000 392.542 200.000 392.542 L 400.000 392.542 400.000 196.271 L 400.000 0.000 308.930 0.000 L 217.861 0.000 217.861 1.903 L 217.861 3.805 222.866 4.480 C 225.618 4.850,230.432 5.500,233.562 5.923 C 245.686 7.562,248.616 8.277,255.062 11.174 C 257.203 12.136,261.123 13.434,263.984 14.129 C 272.118 16.105,274.990 17.156,276.996 18.892 C 279.032 20.654,280.661 21.545,284.460 22.971 C 285.936 23.525,288.147 24.756,289.373 25.706 C 291.880 27.648,293.240 28.388,297.724 30.248 C 299.820 31.117,301.560 32.196,303.023 33.534 C 304.221 34.629,306.407 36.225,307.880 37.081 C 309.353 37.936,311.897 39.856,313.532 41.347 C 315.168 42.838,317.584 44.750,318.901 45.596 C 320.218 46.443,322.355 48.238,323.651 49.585 C 324.946 50.933,327.013 52.601,328.243 53.291 C 329.888 54.215,330.903 55.171,332.079 56.901 C 332.958 58.196,334.042 59.450,334.489 59.689 C 336.049 60.524,338.435 62.963,339.241 64.546 C 339.688 65.425,341.233 67.380,342.674 68.891 C 344.115 70.402,346.106 72.787,347.098 74.190 C 348.091 75.594,349.969 77.933,351.272 79.389 C 352.575 80.844,354.391 83.317,355.307 84.884 C 356.223 86.451,357.709 88.539,358.609 89.524 C 360.609 91.711,360.927 92.274,362.750 96.859 C 363.670 99.172,364.984 101.521,366.372 103.336 C 367.758 105.147,369.007 107.378,369.804 109.469 C 370.493 111.276,371.848 113.926,372.816 115.357 C 375.349 119.105,375.916 120.634,377.851 128.932 C 379.197 134.707,380.017 137.298,381.513 140.512 C 384.407 146.727,384.971 149.290,386.056 161.138 C 387.137 172.941,387.477 175.967,388.239 180.569 C 390.024 191.354,390.024 192.317,388.231 203.533 C 387.817 206.124,387.201 211.158,386.862 214.720 C 384.954 234.752,384.370 237.953,381.595 243.570 C 380.263 246.268,379.326 248.911,378.604 252.012 C 375.882 263.703,375.701 264.218,372.556 269.225 C 371.695 270.595,370.511 272.980,369.925 274.524 C 368.659 277.860,368.158 278.710,366.031 281.123 C 364.907 282.397,363.859 284.352,362.574 287.571 C 361.096 291.269,360.347 292.593,358.812 294.216 C 357.758 295.331,356.325 297.372,355.628 298.753 C 354.931 300.134,353.266 302.415,351.929 303.821 C 350.591 305.228,348.453 307.880,347.176 309.715 C 345.899 311.551,343.852 314.066,342.626 315.304 C 341.400 316.543,339.758 318.607,338.978 319.891 C 338.081 321.368,336.629 322.957,335.023 324.219 C 333.628 325.316,332.065 326.873,331.550 327.680 C 330.409 329.468,329.299 330.469,326.987 331.796 C 326.016 332.354,324.426 333.627,323.454 334.624 C 322.483 335.622,319.833 337.780,317.566 339.420 C 315.299 341.060,312.378 343.417,311.075 344.656 C 309.772 345.896,307.652 347.450,306.365 348.110 C 305.077 348.769,303.162 350.123,302.109 351.118 C 300.014 353.097,298.835 353.798,295.814 354.862 C 292.125 356.161,290.069 357.253,288.199 358.906 C 287.176 359.810,285.461 360.933,284.387 361.402 C 278.704 363.882,277.134 364.673,275.353 365.953 C 272.693 367.863,270.168 368.793,263.857 370.185 C 256.910 371.717,255.317 372.231,250.911 374.367 C 246.160 376.670,241.242 377.648,227.674 378.987 C 221.953 379.552,214.446 380.487,210.991 381.066 C 202.829 382.435,195.397 382.485,189.057 381.216 C 186.708 380.746,179.662 379.835,173.398 379.191 C 156.238 377.428,152.688 376.759,148.184 374.440 C 144.989 372.794,141.520 371.637,136.605 370.579 C 131.379 369.454,126.422 367.951,125.129 367.099 C 124.577 366.735,123.282 365.835,122.252 365.098 C 121.221 364.361,119.088 363.276,117.511 362.688 C 114.488 361.560,112.634 360.516,109.172 357.990 C 108.010 357.142,105.372 355.795,103.311 354.996 C 100.581 353.938,99.017 353.049,97.549 351.720 C 96.442 350.717,94.063 349.025,92.264 347.961 C 90.465 346.896,87.649 344.805,86.008 343.313 C 84.366 341.821,81.861 339.845,80.440 338.921 C 79.020 337.998,77.199 336.438,76.394 335.455 C 75.585 334.469,73.714 332.958,72.216 332.084 C 70.456 331.056,69.097 329.909,68.347 328.819 C 67.259 327.238,65.538 325.585,62.866 323.555 C 62.228 323.070,61.172 321.727,60.519 320.570 C 59.866 319.412,58.369 317.601,57.192 316.544 C 56.015 315.487,54.381 313.562,53.561 312.267 C 52.741 310.972,51.077 308.852,49.865 307.556 C 47.268 304.782,46.216 303.386,44.010 299.781 C 43.111 298.311,41.739 296.472,40.961 295.694 C 39.670 294.403,38.760 292.719,36.661 287.733 C 36.252 286.762,35.097 284.893,34.094 283.581 C 32.081 280.947,30.802 278.553,29.483 274.945 C 29.003 273.633,27.816 271.602,26.845 270.431 C 24.553 267.668,24.182 266.758,22.327 259.333 C 20.743 252.995,20.385 251.931,17.908 246.207 C 15.773 241.273,14.629 236.119,13.139 224.730 C 12.771 221.923,11.869 215.829,11.133 211.187 C 8.447 194.248,8.411 190.626,10.774 175.466 C 11.532 170.608,12.605 163.298,13.160 159.222 C 14.903 146.423,15.899 142.343,18.923 135.623 C 19.917 133.414,21.223 129.234,22.410 124.467 C 24.017 118.014,24.494 116.628,25.514 115.439 C 27.598 113.009,28.988 110.676,30.069 107.794 C 31.306 104.496,32.143 103.012,34.422 100.072 C 35.373 98.846,36.723 96.330,37.501 94.337 C 38.495 91.790,39.466 90.113,40.935 88.407 C 42.062 87.098,43.943 84.468,45.116 82.562 C 46.289 80.656,48.332 78.037,49.657 76.742 C 50.981 75.447,52.560 73.472,53.165 72.354 C 53.775 71.227,55.360 69.354,56.723 68.150 C 58.075 66.955,59.729 65.007,60.399 63.820 C 61.186 62.426,62.380 61.099,63.775 60.069 C 64.962 59.192,66.650 57.503,67.527 56.316 C 68.557 54.922,69.884 53.728,71.279 52.941 C 72.465 52.271,74.413 50.617,75.608 49.265 C 76.812 47.902,78.685 46.317,79.812 45.707 C 80.930 45.102,82.905 43.511,84.200 42.171 C 85.519 40.808,88.160 38.752,90.201 37.500 C 92.206 36.269,94.833 34.400,96.038 33.345 C 97.592 31.986,99.273 31.021,101.814 30.030 C 103.785 29.261,106.192 28.020,107.164 27.272 C 110.283 24.870,111.596 24.123,115.789 22.367 C 118.050 21.420,120.611 20.026,121.481 19.270 C 122.350 18.513,123.351 17.657,123.704 17.367 C 124.056 17.077,127.805 15.981,132.033 14.931 C 136.938 13.713,140.969 12.453,143.168 11.451 C 149.871 8.395,155.056 7.198,169.774 5.307 C 174.092 4.752,178.376 4.191,179.293 4.060 L 180.962 3.822 180.962 1.911 L 180.962 0.000 90.481 0.000 L 0.000 0.000 0.000 196.271 M193.916 22.421 C 175.797 23.194,163.741 24.686,159.886 26.631 C 156.969 28.104,152.213 29.553,146.222 30.793 C 139.940 32.094,138.926 32.411,137.142 33.629 C 135.282 34.899,132.113 36.364,127.135 38.255 C 124.514 39.250,122.724 40.230,121.289 41.455 C 118.962 43.442,117.878 44.021,112.891 45.949 C 110.210 46.986,108.901 47.768,107.284 49.299 C 106.124 50.398,104.342 51.700,103.324 52.193 C 100.322 53.646,98.720 54.873,97.370 56.754 C 96.597 57.830,95.228 59.012,93.879 59.769 C 92.658 60.453,90.687 61.988,89.500 63.178 C 88.312 64.369,86.281 66.127,84.985 67.086 C 81.603 69.589,78.001 73.128,75.157 76.742 C 73.798 78.469,71.740 80.854,70.584 82.041 C 69.429 83.229,67.925 85.192,67.242 86.403 C 66.556 87.621,65.272 89.143,64.373 89.804 C 62.450 91.218,61.041 92.997,60.044 95.267 C 59.646 96.173,58.370 97.948,57.208 99.212 C 55.726 100.824,54.712 102.443,53.813 104.631 C 51.449 110.389,50.772 111.668,48.972 113.769 C 47.593 115.379,46.673 117.152,44.966 121.492 C 43.747 124.590,42.399 127.570,41.971 128.115 C 40.514 129.967,39.309 133.258,38.288 138.175 C 36.809 145.293,35.882 148.466,34.293 151.853 C 28.374 164.461,28.557 219.818,34.560 232.869 C 35.530 234.979,36.592 238.301,37.321 241.505 C 39.537 251.255,40.053 252.918,41.615 255.348 C 42.448 256.644,43.922 259.762,44.891 262.278 C 47.120 268.064,47.470 268.727,49.630 271.257 C 50.699 272.510,51.819 274.438,52.452 276.117 C 54.074 280.417,55.302 282.653,57.207 284.775 C 58.169 285.847,59.553 287.878,60.282 289.289 C 61.859 292.339,62.060 292.590,64.496 294.548 C 65.540 295.387,66.935 297.052,67.619 298.277 C 68.299 299.495,70.030 301.639,71.465 303.042 C 72.900 304.446,74.448 306.212,74.905 306.968 C 76.119 308.973,83.875 316.497,86.163 317.889 C 87.243 318.546,88.957 320.045,89.972 321.221 C 90.986 322.396,92.757 323.888,93.906 324.537 C 95.054 325.185,96.996 326.856,98.219 328.250 C 99.970 330.244,101.088 331.094,103.470 332.240 C 105.134 333.041,107.309 334.414,108.302 335.290 C 110.197 336.962,113.346 338.705,115.996 339.548 C 118.517 340.350,120.471 341.459,122.245 343.094 C 124.052 344.759,127.187 346.295,132.140 347.942 C 133.895 348.525,136.318 349.597,137.525 350.324 C 140.350 352.025,143.057 352.897,151.659 354.877 C 155.513 355.764,159.458 356.829,160.425 357.244 C 169.613 361.182,195.061 363.112,214.917 361.375 C 229.138 360.132,231.338 359.777,236.733 357.855 C 239.448 356.888,244.482 355.472,247.920 354.708 C 255.324 353.062,257.804 352.249,261.197 350.351 C 262.589 349.573,265.375 348.404,267.389 347.753 C 271.369 346.467,274.619 344.807,276.686 343.004 C 277.410 342.371,278.912 341.437,280.022 340.926 C 281.133 340.416,283.375 339.393,285.006 338.652 C 286.636 337.912,288.579 336.784,289.324 336.145 C 291.403 334.362,292.754 333.497,296.266 331.703 C 298.779 330.419,299.811 329.625,300.900 328.142 C 301.810 326.902,303.292 325.634,305.125 324.527 C 306.857 323.480,308.466 322.127,309.287 321.026 C 310.023 320.039,311.878 318.397,313.409 317.378 C 314.940 316.358,316.798 314.733,317.538 313.766 C 318.279 312.798,319.787 311.302,320.890 310.441 C 321.993 309.580,323.747 307.607,324.789 306.057 C 325.830 304.507,327.535 302.582,328.577 301.779 C 329.619 300.977,330.958 299.476,331.551 298.443 C 333.104 295.743,333.802 294.904,335.718 293.441 C 337.008 292.456,337.876 291.237,339.297 288.412 C 340.328 286.361,342.035 283.613,343.089 282.304 C 345.200 279.685,346.183 277.930,347.459 274.503 C 348.418 271.926,349.049 270.823,350.625 268.970 C 352.147 267.182,354.211 262.963,355.214 259.596 C 355.675 258.045,356.911 255.131,357.960 253.119 C 360.053 249.105,360.563 247.528,362.126 240.236 C 362.704 237.537,364.111 232.414,365.252 228.852 C 367.254 222.604,367.357 222.062,368.162 213.543 C 369.973 194.364,369.975 190.289,368.187 170.952 C 367.313 161.499,367.258 161.218,365.039 154.661 C 364.199 152.179,362.888 147.321,362.127 143.867 C 360.400 136.038,359.883 134.441,357.802 130.520 C 356.886 128.793,355.650 125.878,355.057 124.043 C 353.704 119.860,352.417 117.294,350.532 115.024 C 348.841 112.987,348.205 111.811,346.854 108.224 C 345.743 105.272,345.149 104.267,342.745 101.276 C 341.790 100.088,340.309 97.652,339.452 95.862 C 338.390 93.641,337.448 92.269,336.488 91.544 C 334.276 89.874,333.040 88.481,331.766 86.223 C 331.117 85.073,329.677 83.371,328.566 82.441 C 327.455 81.511,325.953 79.822,325.227 78.688 C 323.506 75.998,315.905 68.348,313.629 67.015 C 312.651 66.442,311.000 64.988,309.960 63.783 C 308.919 62.578,307.114 61.054,305.948 60.396 C 304.782 59.738,302.850 58.085,301.655 56.724 C 300.080 54.930,298.755 53.889,296.846 52.945 C 295.396 52.228,293.415 50.917,292.444 50.032 C 290.178 47.967,288.488 46.962,285.207 45.726 C 281.368 44.282,279.859 43.440,277.510 41.435 C 275.996 40.142,274.272 39.215,271.271 38.078 C 268.991 37.214,266.065 35.952,264.769 35.273 C 263.474 34.595,261.619 33.623,260.648 33.113 C 259.676 32.603,257.291 31.816,255.348 31.363 C 244.907 28.930,242.200 28.165,239.673 26.936 C 235.578 24.944,232.420 24.407,218.698 23.364 C 203.446 22.205,201.091 22.115,193.916 22.421 M245.927 81.826 C 271.294 83.299,281.397 84.581,284.977 86.784 C 285.987 87.405,288.019 88.368,289.493 88.923 C 295.670 91.247,300.043 95.506,303.275 102.344 C 304.420 104.766,305.724 107.244,306.171 107.850 C 308.152 110.529,307.791 122.350,305.603 126.426 C 305.073 127.413,304.087 129.798,303.410 131.726 C 301.468 137.259,299.673 140.379,297.617 141.794 C 296.643 142.464,294.418 144.248,292.673 145.757 C 286.446 151.143,285.940 151.235,264.181 150.919 C 241.639 150.592,231.261 151.500,221.197 154.678 C 217.733 155.772,214.335 156.652,205.299 158.796 C 200.386 159.962,198.552 160.735,196.573 162.472 C 195.864 163.095,193.174 164.615,190.595 165.850 C 187.001 167.571,185.351 168.627,183.532 170.373 C 182.226 171.625,180.010 173.344,178.606 174.192 C 176.598 175.406,175.670 176.311,174.244 178.446 C 173.249 179.938,171.499 181.942,170.356 182.901 C 168.575 184.395,167.958 185.321,166.038 189.378 C 164.807 191.982,163.129 194.907,162.311 195.878 C 160.361 198.194,159.672 199.859,158.415 205.299 C 157.842 207.782,156.415 212.816,155.245 216.487 C 150.873 230.206,150.959 246.757,155.466 258.698 C 156.563 261.604,157.793 265.184,158.201 266.654 C 159.314 270.670,160.580 273.096,163.263 276.349 C 164.598 277.969,166.224 280.219,166.876 281.350 C 167.527 282.481,168.882 284.070,169.886 284.883 C 170.891 285.695,173.043 287.713,174.669 289.368 C 177.166 291.910,178.297 292.711,181.958 294.531 C 184.341 295.716,187.065 297.331,188.010 298.121 C 190.560 300.251,191.445 300.605,197.965 302.101 C 201.243 302.853,206.487 304.161,209.617 305.008 C 221.927 308.339,237.864 308.326,250.638 304.974 C 253.876 304.124,259.510 302.820,263.158 302.075 C 270.006 300.676,272.619 299.674,277.418 296.610 C 278.545 295.890,280.827 294.819,282.487 294.229 C 285.500 293.159,286.438 292.624,290.441 289.691 C 291.607 288.836,293.992 287.586,295.741 286.912 C 300.048 285.252,300.758 284.855,303.051 282.818 C 305.296 280.825,305.801 280.743,310.173 281.662 C 313.948 282.456,317.959 287.033,317.959 290.546 C 317.959 294.981,314.526 299.450,308.973 302.245 C 306.289 303.596,303.851 305.129,303.042 305.975 C 301.209 307.892,299.918 308.649,296.123 310.032 C 294.369 310.672,291.476 312.130,289.694 313.273 C 286.974 315.018,285.222 315.738,278.753 317.765 C 274.516 319.093,270.297 320.568,269.376 321.043 C 264.999 323.300,257.217 324.662,242.002 325.835 C 231.007 326.683,227.615 326.677,219.823 325.796 C 217.988 325.589,213.922 325.246,210.788 325.033 C 201.589 324.409,199.138 323.845,193.719 321.109 C 190.692 319.581,187.296 318.247,184.218 317.376 C 177.797 315.560,176.979 315.180,174.546 312.879 C 173.350 311.748,171.326 310.391,169.812 309.704 C 168.224 308.984,166.199 307.606,164.742 306.254 C 163.408 305.016,161.698 303.619,160.942 303.150 C 159.095 302.002,151.135 293.477,149.842 291.261 C 149.273 290.286,147.908 288.627,146.809 287.573 C 144.444 285.307,144.139 284.760,142.520 279.882 C 141.773 277.630,140.595 275.143,139.546 273.602 C 136.827 269.608,135.505 264.807,134.843 256.526 C 134.705 254.799,134.338 251.271,134.028 248.687 C 132.235 233.741,135.433 206.443,139.963 198.037 C 140.661 196.742,141.805 194.004,142.506 191.953 C 144.397 186.423,145.328 184.501,147.123 182.428 C 148.014 181.399,149.557 178.981,150.551 177.056 C 151.830 174.579,152.875 173.132,154.123 172.109 C 155.094 171.314,156.347 169.933,156.908 169.041 C 158.290 166.843,165.849 159.412,168.669 157.479 C 169.924 156.618,171.747 155.087,172.718 154.076 C 173.779 152.973,175.740 151.604,177.625 150.653 C 179.352 149.782,181.529 148.369,182.462 147.513 C 184.471 145.671,186.886 144.549,191.953 143.105 C 194.004 142.520,197.095 141.283,198.822 140.355 C 203.818 137.671,209.481 136.165,219.627 134.824 C 222.218 134.482,227.388 133.514,231.115 132.674 C 242.092 130.199,260.073 129.559,271.951 131.219 C 275.308 131.688,275.686 131.673,276.662 131.027 C 277.246 130.641,278.960 129.852,280.471 129.273 C 285.125 127.490,286.145 126.074,286.943 120.290 C 288.319 110.308,284.074 105.958,271.246 104.204 C 268.763 103.864,264.347 103.073,261.433 102.446 C 240.476 97.937,207.173 98.366,187.180 103.401 C 183.368 104.361,177.304 105.600,173.706 106.153 C 165.484 107.416,162.997 108.061,159.790 109.763 C 158.382 110.510,154.483 111.996,151.125 113.065 C 147.397 114.252,144.182 115.543,142.872 116.378 C 139.625 118.450,136.429 119.887,132.090 121.229 C 128.408 122.368,126.954 123.117,122.223 126.314 C 121.173 127.024,119.267 127.986,117.988 128.453 C 116.395 129.034,114.912 130.000,113.278 131.522 C 111.966 132.744,109.720 134.453,108.286 135.320 C 105.066 137.267,94.519 146.861,91.070 150.979 C 89.666 152.655,87.458 155.196,86.163 156.626 C 84.868 158.057,83.298 160.187,82.676 161.360 C 82.054 162.534,80.448 164.576,79.109 165.898 C 77.162 167.820,76.421 168.923,75.415 171.394 C 74.723 173.094,73.646 175.191,73.022 176.055 C 70.074 180.132,69.094 181.746,68.141 184.092 C 66.965 186.986,65.802 188.355,62.965 190.184 C 61.865 190.893,60.129 192.111,59.108 192.891 C 56.763 194.681,56.241 194.665,53.910 192.739 C 52.866 191.877,51.086 190.459,49.954 189.589 C 48.822 188.719,47.531 187.292,47.085 186.418 L 46.275 184.830 47.092 182.373 C 47.542 181.022,48.776 178.545,49.834 176.869 C 50.893 175.193,52.244 172.646,52.838 171.209 C 53.965 168.481,54.812 167.165,56.920 164.868 C 57.613 164.112,59.020 161.710,60.047 159.530 C 61.419 156.617,62.580 154.841,64.428 152.827 C 65.811 151.321,67.516 149.011,68.217 147.695 C 68.996 146.235,70.277 144.646,71.505 143.618 C 72.612 142.691,74.284 140.738,75.220 139.277 C 76.350 137.514,77.573 136.190,78.858 135.340 C 79.922 134.636,81.471 133.111,82.300 131.952 C 83.196 130.699,84.843 129.147,86.359 128.127 C 87.763 127.183,89.627 125.481,90.503 124.345 C 91.632 122.879,92.923 121.821,94.944 120.707 C 96.511 119.843,98.657 118.303,99.713 117.284 C 100.944 116.096,103.222 114.635,106.065 113.209 C 108.503 111.986,111.293 110.285,112.266 109.428 C 114.498 107.461,115.187 107.110,120.523 105.231 C 123.365 104.230,125.914 102.999,127.834 101.702 C 129.813 100.366,131.836 99.399,133.988 98.764 C 135.751 98.243,138.430 97.455,139.941 97.012 C 141.452 96.569,143.852 95.504,145.274 94.645 C 148.599 92.637,151.004 91.852,159.176 90.102 C 162.846 89.317,168.145 87.901,170.952 86.956 C 179.582 84.050,184.917 83.253,201.374 82.412 C 206.016 82.175,212.287 81.743,215.309 81.452 C 221.717 80.836,230.772 80.946,245.927 81.826 " stroke="none" fill="none" fill-rule="evenodd"></path></g></svg>