<svg id="svg" version="1.1" xmlns="http://www.w3.org/2000/svg" xmlns:xlink="http://www.w3.org/1999/xlink" width="400" height="403" viewBox="0, 0, 400,403"><g id="svgg"><path id="path0" d="M46.000 6.709 C 28.240 7.505,12.006 21.191,5.918 40.500 C 2.901 50.067,2.974 355.146,5.996 364.783 C 11.209 381.415,22.384 392.317,39.500 397.472 C 47.359 399.840,353.529 399.759,361.846 397.388 C 381.452 391.798,394.400 376.908,396.096 358.000 C 397.130 346.471,397.124 54.306,396.090 45.500 C 394.263 29.947,384.374 17.160,368.000 9.180 L 362.500 6.500 208.000 6.437 C 123.025 6.402,50.125 6.524,46.000 6.709 M367.221 18.265 C 377.389 23.290,383.131 30.043,387.511 42.130 C 388.920 46.018,389.161 63.528,389.695 201.000 L 390.295 355.500 387.958 362.000 C 384.748 370.929,382.184 374.761,375.174 381.105 C 364.367 390.884,381.365 390.026,200.000 389.944 L 40.500 389.872 35.500 387.598 C 28.450 384.392,19.973 376.273,16.240 369.151 L 13.095 363.152 12.905 203.291 C 12.716 44.070,12.724 43.413,14.767 38.795 C 19.430 28.253,27.943 20.208,38.500 16.367 L 44.500 14.184 202.052 14.342 L 359.604 14.500 367.221 18.265 M249.708 135.042 C 242.429 138.975,240.011 147.205,243.905 154.790 C 248.828 164.380,262.446 164.494,268.825 155.000 C 276.441 143.665,261.880 128.464,249.708 135.042 M259.528 140.195 C 267.671 143.905,264.995 156.000,256.031 156.000 C 247.300 156.000,245.177 143.293,253.357 139.992 C 256.264 138.818,256.526 138.827,259.528 140.195 M158.893 144.440 C 148.498 150.316,152.632 168.000,164.400 168.000 C 175.551 168.000,180.836 153.832,172.579 146.074 C 169.505 143.186,162.576 142.359,158.893 144.440 M168.227 150.750 C 170.958 153.861,171.179 156.503,168.945 159.343 C 163.737 165.964,155.688 158.173,160.557 151.223 C 162.422 148.559,166.104 148.333,168.227 150.750 M229.846 167.776 C 221.172 176.449,219.041 181.000,223.651 181.000 C 226.215 181.000,243.000 163.960,243.000 161.357 C 243.000 156.648,239.042 158.579,229.846 167.776 M175.000 168.250 C 175.001 171.304,180.008 176.923,185.862 180.438 C 187.275 181.287,188.956 179.572,188.985 177.253 C 189.018 174.516,178.584 165.000,175.550 165.000 C 175.247 165.000,175.000 166.463,175.000 168.250 M198.684 178.449 C 181.668 184.517,181.890 210.442,199.000 215.508 C 202.646 216.588,205.398 219.633,203.415 220.394 C 200.422 221.543,201.901 237.500,205.000 237.500 C 207.496 237.500,207.500 237.484,207.500 227.733 L 207.500 217.967 213.878 214.733 C 236.143 203.447,222.168 170.073,198.684 178.449 M211.279 184.472 C 223.483 189.571,220.152 208.478,206.664 210.667 C 197.893 212.090,189.196 201.253,192.591 193.129 C 196.206 184.477,203.360 181.163,211.279 184.472 M221.646 214.246 C 220.672 217.970,231.948 228.725,235.428 227.389 C 237.746 226.500,237.424 225.614,232.856 220.311 C 226.148 212.524,222.599 210.603,221.646 214.246 M172.593 225.907 C 159.700 238.828,157.818 242.000,163.043 242.000 C 167.339 242.000,189.590 218.435,188.509 215.030 C 187.407 211.557,185.846 212.624,172.593 225.907 M243.001 228.123 C 230.715 233.022,235.466 250.011,248.440 247.577 C 257.995 245.785,259.435 232.169,250.466 228.421 C 246.562 226.790,246.364 226.782,243.001 228.123 M249.584 237.266 C 250.183 239.153,248.028 242.000,246.000 242.000 C 243.954 242.000,241.817 239.153,242.424 237.238 C 243.586 233.577,248.420 233.596,249.584 237.266 M137.839 240.463 C 128.624 246.725,128.320 260.467,137.268 266.231 C 150.994 275.072,165.513 263.188,160.970 246.831 C 158.765 238.891,145.518 235.245,137.839 240.463 M197.324 244.522 C 182.797 253.230,188.409 274.011,205.284 273.996 C 217.963 273.985,225.418 258.593,217.375 249.033 C 211.545 242.106,204.136 240.439,197.324 244.522 M150.855 244.425 C 159.293 248.788,156.138 262.000,146.659 262.000 C 141.782 262.000,140.149 261.188,138.463 257.928 C 133.711 248.740,141.914 239.801,150.855 244.425 M211.077 250.923 C 218.405 258.251,210.136 271.224,201.111 266.557 C 194.191 262.979,193.073 256.727,198.400 251.400 C 202.829 246.971,206.969 246.815,211.077 250.923 " stroke="none" fill="#000000" fill-rule="evenodd"></path></g></svg>