<svg id="svg" version="1.1" xmlns="http://www.w3.org/2000/svg" xmlns:xlink="http://www.w3.org/1999/xlink" width="400" height="400" viewBox="0, 0, 400,400"><g id="svgg"><path id="path0" d="M39.775 9.376 C 24.810 14.381,14.585 24.774,9.482 40.170 L 7.052 47.500 7.026 200.535 L 7.000 353.570 9.329 360.682 C 13.858 374.507,21.620 383.325,34.998 389.845 L 42.500 393.500 191.194 393.768 C 352.028 394.058,358.180 393.908,367.500 389.475 C 376.396 385.243,386.867 374.265,390.485 365.376 L 393.284 358.500 393.686 302.000 C 393.907 270.925,393.726 199.150,393.284 142.500 L 392.480 39.500 389.668 33.752 C 384.024 22.214,372.882 12.829,360.000 8.765 C 354.876 7.148,343.970 7.033,200.500 7.078 L 46.500 7.127 39.775 9.376 M362.430 18.325 C 373.736 23.528,380.514 30.871,384.196 41.905 C 386.659 49.284,387.012 350.094,384.568 358.148 C 380.658 371.030,371.103 380.539,358.000 384.588 C 350.529 386.896,49.299 386.656,42.428 384.336 C 32.414 380.954,24.374 373.946,19.213 364.101 L 16.044 358.055 15.772 200.777 L 15.500 43.500 18.352 38.083 C 23.893 27.556,35.744 17.706,44.999 15.934 C 46.924 15.565,117.800 15.339,202.500 15.430 L 356.500 15.596 362.430 18.325 M146.607 134.582 C 146.273 135.452,146.000 140.797,146.000 146.459 C 146.000 158.059,145.794 158.438,139.010 159.302 C 130.747 160.355,130.997 159.038,131.022 201.361 C 131.048 244.551,130.719 243.016,140.166 243.964 L 145.500 244.500 146.111 257.000 C 146.818 271.475,146.497 270.000,148.941 270.000 C 151.936 270.000,152.405 268.370,152.973 256.000 L 153.500 244.500 157.786 243.928 C 165.876 242.848,165.500 244.979,165.500 200.215 C 165.500 161.167,165.466 160.500,163.500 160.500 C 161.540 160.500,161.495 161.254,161.238 198.279 L 160.976 236.059 158.238 237.108 C 156.544 237.758,152.165 237.897,146.750 237.473 L 138.000 236.788 138.000 201.525 L 138.000 166.262 141.750 165.642 C 143.813 165.301,146.729 165.017,148.231 165.011 C 151.905 164.996,152.500 162.514,152.500 147.213 C 152.500 137.379,152.201 134.737,151.000 133.978 C 148.797 132.587,147.293 132.793,146.607 134.582 M199.084 134.316 C 198.462 134.938,198.000 139.328,198.000 144.618 C 198.000 155.415,197.557 157.000,194.542 157.000 C 184.148 157.000,182.997 159.768,183.015 184.715 C 183.031 206.098,183.398 208.454,186.620 207.837 C 188.366 207.503,188.536 206.035,189.006 187.283 C 189.604 163.396,188.781 164.840,201.588 165.212 L 211.500 165.500 211.773 183.272 C 212.080 203.263,212.693 201.767,203.751 202.860 C 197.351 203.643,197.274 203.871,197.150 222.500 C 197.051 237.428,198.185 240.952,201.984 237.514 C 203.795 235.876,204.000 234.452,204.000 223.545 C 204.000 209.968,204.405 209.000,210.089 209.000 C 218.191 209.000,218.500 208.066,218.500 183.616 C 218.500 158.938,218.259 158.203,209.795 157.073 C 206.109 156.581,205.471 156.146,205.299 154.000 C 205.188 152.625,204.813 147.605,204.467 142.845 C 203.822 133.995,202.113 131.287,199.084 134.316 M250.250 133.662 C 249.379 134.014,248.995 136.948,248.985 143.333 C 248.966 154.376,248.858 154.573,242.300 155.466 C 234.204 156.568,234.541 155.017,234.179 192.902 C 233.812 231.210,233.770 231.000,241.884 231.000 C 247.877 231.000,249.000 233.014,249.000 243.761 C 249.000 251.973,249.195 252.927,250.991 253.497 C 254.258 254.534,254.702 253.489,255.222 243.548 C 255.756 233.345,256.774 231.000,260.672 231.000 C 269.595 231.000,270.002 229.387,269.991 194.125 C 269.981 161.715,269.521 156.000,266.920 156.000 C 264.031 156.000,264.006 156.279,263.826 190.428 C 263.625 228.343,264.774 225.179,251.352 224.787 L 241.500 224.500 241.500 193.500 L 241.500 162.500 247.296 161.984 C 254.743 161.322,254.966 160.886,254.985 146.950 C 255.002 134.215,254.232 132.056,250.250 133.662 " stroke="none" fill="#000000" fill-rule="evenodd"></path></g></svg>