<svg id="svg" version="1.1" xmlns="http://www.w3.org/2000/svg" xmlns:xlink="http://www.w3.org/1999/xlink" width="400" height="397" viewBox="0, 0, 400,397"><g id="svgg"><path id="path0" d="M36.607 5.161 C 23.804 9.709,13.363 19.827,7.875 33.006 L 5.587 38.500 5.208 192.700 C 4.950 297.522,5.165 349.065,5.881 353.661 C 8.676 371.614,21.236 385.211,40.500 391.139 C 50.119 394.098,349.965 394.013,360.335 391.047 C 377.141 386.241,390.234 372.245,393.870 355.201 C 395.430 347.888,395.477 48.987,393.920 40.434 C 391.037 24.603,381.318 12.872,365.000 5.526 C 360.548 3.522,358.788 3.498,201.500 3.284 L 42.500 3.067 36.607 5.161 M358.181 11.890 C 369.856 15.907,378.589 23.374,383.632 33.653 L 386.500 39.500 386.500 197.000 L 386.500 354.500 384.165 360.285 C 381.076 367.939,372.585 377.074,365.178 380.711 L 359.500 383.500 200.000 383.500 L 40.500 383.500 35.714 381.143 C 28.158 377.423,20.499 369.760,16.774 362.193 L 13.500 355.542 13.241 199.573 C 12.983 44.464,12.993 43.572,15.037 37.666 C 19.178 25.697,26.901 17.801,39.214 12.943 L 46.500 10.069 199.593 10.034 C 347.165 10.001,352.885 10.068,358.181 11.890 M209.054 129.946 C 208.258 130.449,207.358 133.023,207.054 135.666 C 206.332 141.926,206.679 141.869,168.700 141.942 C 132.931 142.012,131.000 142.540,131.000 152.259 C 131.000 156.076,132.847 158.333,138.000 160.815 L 141.500 162.500 141.776 178.366 C 142.074 195.472,141.829 196.439,136.932 197.515 C 127.857 199.508,129.010 210.963,138.813 216.203 L 142.000 217.907 142.000 227.918 C 142.000 237.106,142.175 238.023,144.127 239.068 C 147.238 240.733,147.967 238.890,147.985 229.315 C 148.007 217.477,148.771 216.000,154.868 216.000 C 158.430 216.000,159.953 215.564,160.393 214.418 C 161.987 210.265,161.412 210.001,150.750 209.985 C 139.417 209.968,137.666 209.398,138.163 205.887 C 138.490 203.572,138.832 203.485,149.500 203.000 C 160.416 202.504,160.500 202.481,160.500 200.014 C 160.500 198.559,159.877 197.444,159.000 197.327 C 158.175 197.217,155.363 196.846,152.750 196.502 L 148.000 195.877 148.100 181.189 C 148.225 162.773,148.519 161.583,153.039 161.230 C 159.774 160.705,161.152 160.082,160.815 157.715 C 160.518 155.626,159.890 155.469,149.750 154.950 C 138.144 154.356,136.114 153.524,137.943 150.107 L 139.070 148.000 199.913 148.000 C 252.543 148.000,260.922 148.201,261.989 149.487 C 264.717 152.773,262.492 153.999,253.781 154.011 C 242.208 154.026,238.191 154.822,237.420 157.251 C 236.426 160.383,238.580 160.968,251.173 160.985 C 265.549 161.004,269.000 159.164,269.000 151.484 C 269.000 144.356,265.546 142.394,251.712 141.666 C 242.558 141.185,242.911 141.422,242.238 135.299 C 241.948 132.660,241.214 130.169,240.605 129.765 C 239.003 128.700,210.767 128.861,209.054 129.946 M234.418 135.607 C 236.290 136.325,236.494 139.106,234.800 140.800 C 232.753 142.847,215.326 142.405,214.134 140.276 C 211.651 135.837,226.257 132.475,234.418 135.607 M253.939 170.038 C 252.871 170.698,252.608 173.541,252.777 182.596 C 253.018 195.544,252.501 196.992,247.628 197.014 C 242.200 197.037,240.000 198.043,240.000 200.500 C 240.000 203.407,242.127 203.969,253.183 203.986 C 261.151 203.999,261.921 204.175,262.540 206.125 C 263.536 209.263,261.582 209.967,251.832 209.985 C 241.571 210.003,240.000 210.469,240.000 213.493 C 240.000 215.502,240.684 215.876,245.750 216.636 L 251.500 217.500 251.778 232.493 C 252.095 249.572,251.913 250.000,244.309 250.000 C 240.436 250.000,240.000 250.241,240.000 252.383 C 240.000 255.367,242.032 255.968,252.168 255.986 C 261.063 256.002,263.000 256.541,263.000 259.000 C 263.000 261.954,262.009 262.001,199.668 261.985 C 137.077 261.969,136.711 261.947,138.094 258.250 C 138.870 256.175,139.581 255.994,147.218 255.919 C 161.636 255.777,163.780 255.195,162.469 251.779 C 161.478 249.197,146.734 248.006,138.813 249.868 C 131.118 251.677,128.208 260.508,133.646 265.548 L 136.292 268.000 200.557 268.000 L 264.822 268.000 267.411 264.923 C 272.068 259.389,269.748 252.392,262.459 249.987 L 258.950 248.828 259.225 233.176 L 259.500 217.525 262.500 216.133 C 267.562 213.784,270.000 210.947,270.000 207.402 C 270.000 203.704,265.821 198.000,263.111 198.000 C 259.785 198.000,259.000 195.821,258.989 186.550 C 258.971 171.860,257.702 167.712,253.939 170.038 M196.650 179.966 C 185.125 192.722,179.838 214.854,186.292 223.317 C 194.908 234.612,205.361 235.633,215.280 226.149 C 223.365 218.420,223.144 210.736,214.356 194.000 C 204.789 175.777,202.251 173.766,196.650 179.966 M208.921 197.082 C 217.247 213.717,213.699 227.000,200.929 227.000 C 189.586 227.000,185.801 213.627,192.926 198.729 C 200.111 183.706,202.122 183.499,208.921 197.082 " stroke="none" fill="#000000" fill-rule="evenodd"></path></g></svg>