<svg id="svg" version="1.1" xmlns="http://www.w3.org/2000/svg" xmlns:xlink="http://www.w3.org/1999/xlink" width="400" height="400" viewBox="0, 0, 400,400"><g id="svgg"><path id="path0" d="M43.500 6.738 C 37.038 7.682,26.327 13.673,20.267 19.733 C 14.097 25.903,12.375 28.616,8.671 38.000 L 6.500 43.500 6.792 201.500 C 7.080 357.685,7.107 359.564,9.125 365.110 C 13.970 378.428,26.083 389.474,40.840 394.032 C 50.645 397.061,351.813 397.106,361.762 394.080 C 378.173 389.090,390.167 377.023,394.642 361.000 C 397.188 351.886,397.058 49.301,394.505 40.703 C 389.736 24.644,378.927 13.365,363.243 8.082 C 357.435 6.125,56.355 4.860,43.500 6.738 M361.241 15.970 C 371.577 19.429,377.914 24.999,384.595 36.500 L 387.500 41.500 387.500 200.500 L 387.500 359.500 384.736 365.129 C 381.306 372.113,373.496 380.174,366.673 383.772 L 361.500 386.500 201.000 386.500 L 40.500 386.500 36.448 384.331 C 26.363 378.932,18.865 369.728,15.402 358.500 C 13.069 350.936,12.710 54.689,15.022 44.749 C 18.308 30.617,28.364 19.742,42.000 15.574 C 50.227 13.058,353.666 13.436,361.241 15.970 M131.524 160.250 C 130.442 203.684,131.195 268.597,132.799 270.201 C 134.463 271.864,264.072 272.684,268.346 271.059 C 270.720 270.156,271.000 269.532,271.000 265.147 C 271.000 257.470,266.328 255.574,264.579 262.541 C 263.963 264.996,263.939 265.000,250.930 265.000 L 237.898 265.000 236.408 261.435 C 234.326 256.452,231.468 257.215,229.604 263.250 C 229.125 264.799,227.573 265.000,216.111 265.000 L 203.159 265.000 202.518 262.084 C 201.415 257.061,196.534 257.235,195.810 262.323 C 195.512 264.418,194.999 264.511,182.211 264.779 L 168.922 265.059 167.448 261.529 C 166.637 259.588,165.642 258.007,165.237 258.015 C 163.647 258.048,162.078 259.665,161.074 262.304 L 160.024 265.068 149.262 264.784 L 138.500 264.500 138.215 254.239 L 137.930 243.977 140.695 242.926 C 145.722 241.015,145.902 237.577,141.031 236.507 C 137.735 235.783,137.000 233.320,137.000 223.000 C 137.000 212.713,137.741 210.351,141.698 208.015 C 145.716 205.645,145.608 204.051,141.300 202.116 C 137.518 200.418,137.138 198.379,137.925 184.010 C 138.444 174.536,138.694 173.487,140.500 173.176 C 142.465 172.837,145.000 170.385,145.000 168.822 C 145.000 168.385,143.467 167.386,141.594 166.604 C 135.766 164.169,135.148 141.216,140.834 138.391 C 147.258 135.200,145.584 132.000,137.492 132.000 L 132.228 132.000 131.524 160.250 M245.269 134.747 C 229.514 135.152,228.264 136.367,235.568 144.176 L 240.280 149.213 222.256 167.238 L 204.231 185.262 200.866 183.482 C 188.085 176.724,188.886 176.693,179.703 184.310 C 153.494 206.048,149.434 213.116,157.993 222.113 C 164.541 228.997,167.916 228.115,179.474 216.500 C 188.941 206.987,191.561 205.561,194.055 208.566 C 198.765 214.241,205.546 214.331,211.772 208.801 C 222.412 199.350,249.000 171.625,249.000 169.981 C 249.000 163.746,243.001 168.058,223.095 188.602 C 203.230 209.103,204.094 208.591,198.000 203.500 C 191.244 197.856,190.292 198.200,175.280 211.705 C 165.179 220.793,165.408 220.675,162.223 218.443 C 157.561 215.178,163.168 207.463,181.903 191.362 C 190.295 184.149,191.168 183.943,195.962 188.041 C 203.735 194.684,205.242 193.881,228.570 170.683 C 249.628 149.741,250.861 147.994,247.024 144.521 C 244.010 141.794,245.440 141.000,253.359 141.000 C 262.331 141.000,263.000 141.624,263.000 150.000 C 263.000 157.174,261.806 159.502,258.919 157.957 C 250.977 153.706,255.209 164.876,263.478 169.986 C 268.867 173.317,269.159 172.439,269.108 153.079 C 269.055 133.056,269.355 133.939,262.691 134.216 C 259.836 134.335,251.996 134.574,245.269 134.747 " stroke="none" fill="#000000" fill-rule="evenodd"></path></g></svg>