<svg id="svg" version="1.1" xmlns="http://www.w3.org/2000/svg" xmlns:xlink="http://www.w3.org/1999/xlink" width="400" height="415.3846153846154" viewBox="0, 0, 400,415.3846153846154"><g id="svgg"><path id="path0" d="M190.800 13.602 C 182.044 15.082,177.238 16.887,176.027 19.150 C 175.815 19.545,174.237 20.791,172.521 21.918 C 168.370 24.642,162.349 31.149,160.816 34.565 C 160.205 35.926,158.894 38.035,157.903 39.253 C 155.543 42.150,155.448 42.354,154.420 46.773 C 152.741 53.987,148.426 59.054,142.067 61.276 C 138.821 62.411,136.187 63.793,134.254 65.377 C 132.683 66.664,129.458 68.416,126.544 69.565 C 125.854 69.837,124.212 71.187,122.895 72.563 C 121.579 73.940,119.469 75.649,118.206 76.362 C 116.086 77.558,113.703 79.653,108.000 85.332 C 102.669 90.641,100.385 93.256,99.427 95.148 C 98.862 96.262,97.239 98.284,95.820 99.641 C 93.542 101.819,93.073 102.542,91.795 105.839 C 91.000 107.891,89.384 111.020,88.205 112.793 C 85.936 116.202,85.509 117.194,83.759 123.121 L 82.661 126.842 83.391 130.719 C 84.619 137.239,86.251 138.606,92.276 138.164 C 97.120 137.808,98.749 136.550,100.551 131.767 C 101.138 130.209,102.239 127.959,102.999 126.767 C 104.323 124.689,105.794 121.786,108.532 115.850 C 109.252 114.288,110.873 111.880,112.284 110.276 C 113.650 108.723,115.321 106.414,115.997 105.146 C 116.673 103.877,117.715 102.461,118.313 101.998 C 118.911 101.535,120.149 100.581,121.064 99.878 C 121.979 99.175,123.452 97.675,124.338 96.544 C 125.253 95.376,126.890 93.949,128.128 93.241 C 129.326 92.556,131.581 90.852,133.140 89.454 C 136.220 86.692,139.926 84.559,144.000 83.205 C 145.430 82.729,147.392 81.880,148.359 81.318 L 150.119 80.297 150.848 81.248 C 152.014 82.769,153.436 86.659,154.587 91.473 C 155.585 95.646,155.789 96.091,157.695 98.269 C 158.818 99.551,160.350 101.948,161.101 103.596 C 162.097 105.780,163.135 107.247,164.933 109.013 C 166.290 110.344,167.890 112.085,168.488 112.881 C 169.087 113.677,170.707 115.002,172.088 115.826 C 173.470 116.650,175.610 118.344,176.845 119.591 C 179.682 122.455,179.864 122.520,189.000 123.944 C 195.216 124.913,197.073 125.065,199.200 124.782 C 213.191 122.918,213.944 122.705,217.099 119.721 C 217.983 118.884,220.356 117.048,222.371 115.639 C 226.825 112.526,229.009 110.159,231.802 105.417 C 232.973 103.428,234.389 101.403,234.948 100.918 C 237.073 99.075,237.975 97.109,238.820 92.483 C 239.676 87.795,240.358 85.750,241.693 83.871 L 242.495 82.743 246.548 83.029 C 251.275 83.363,254.578 84.883,258.876 88.706 C 260.178 89.864,262.464 91.426,263.955 92.178 C 266.471 93.445,267.395 94.283,269.976 97.641 C 270.514 98.340,271.841 99.549,272.926 100.329 C 274.130 101.194,275.579 102.807,276.645 104.471 C 277.697 106.112,279.161 107.748,280.326 108.585 C 282.470 110.125,282.893 110.820,285.203 116.583 C 286.082 118.774,287.300 121.204,287.912 121.983 C 290.898 125.789,292.262 129.967,293.990 140.598 C 294.634 144.559,295.628 149.690,296.199 152.000 C 297.645 157.848,297.596 163.174,296.029 170.682 C 295.396 173.717,294.595 178.360,294.251 181.000 C 293.906 183.640,293.247 188.677,292.787 192.192 C 291.695 200.535,291.007 203.735,289.751 206.320 C 288.546 208.801,288.319 208.789,286.200 206.121 C 279.745 197.991,279.605 197.759,277.719 192.000 C 276.266 187.565,276.113 187.299,273.465 184.600 C 271.955 183.060,270.277 180.930,269.736 179.867 C 269.195 178.804,267.502 176.554,265.973 174.867 C 264.444 173.180,262.069 170.286,260.696 168.435 C 259.139 166.336,256.996 164.105,255.000 162.507 C 253.240 161.097,250.540 158.853,249.000 157.520 C 247.189 155.952,244.875 154.474,242.450 153.338 C 240.387 152.371,237.894 150.870,236.909 150.003 C 235.014 148.336,232.591 147.277,227.631 145.948 C 225.964 145.501,221.928 144.252,218.662 143.173 C 200.997 137.333,166.468 137.138,146.090 142.764 C 143.023 143.610,129.837 145.684,122.898 146.411 C 117.339 146.993,113.169 148.146,109.696 150.060 C 107.582 151.225,105.114 152.081,100.620 153.207 C 93.877 154.898,93.224 155.166,90.050 157.551 C 88.084 159.028,85.342 160.329,80.323 162.162 C 79.291 162.540,77.348 163.828,76.006 165.026 C 74.663 166.224,72.628 167.678,71.482 168.258 C 68.524 169.754,65.232 172.073,63.600 173.810 C 62.830 174.630,60.904 176.268,59.319 177.452 C 57.735 178.635,55.941 180.277,55.333 181.102 C 54.726 181.926,52.782 184.130,51.014 186.000 C 48.923 188.212,47.101 190.658,45.800 193.000 C 44.700 194.980,42.953 197.538,41.919 198.683 C 39.793 201.038,39.207 202.066,38.205 205.200 C 37.182 208.400,35.986 211.177,34.847 213.000 C 32.271 217.121,31.070 221.335,29.435 232.000 C 25.396 258.338,25.209 263.380,27.799 276.136 L 28.706 280.600 26.118 285.600 C 24.695 288.350,22.511 291.913,21.265 293.518 C 17.549 298.306,16.505 299.891,15.880 301.690 C 9.162 321.031,8.036 330.033,11.610 335.816 C 12.041 336.514,13.211 339.468,14.208 342.380 C 16.561 349.250,17.154 350.352,19.596 352.397 C 20.715 353.333,22.190 354.932,22.874 355.950 C 25.001 359.114,26.037 359.956,30.321 362.002 C 32.605 363.093,35.312 364.597,36.337 365.343 C 41.751 369.286,50.198 370.619,62.200 369.424 C 74.107 368.239,74.418 368.308,80.939 373.572 C 82.886 375.143,85.511 376.949,86.773 377.586 C 88.035 378.223,90.042 379.686,91.234 380.837 C 93.313 382.846,95.122 383.862,99.356 385.399 C 100.431 385.789,102.681 387.045,104.356 388.190 C 108.613 391.100,108.526 391.064,115.376 392.781 C 118.762 393.630,122.943 394.957,124.667 395.729 C 131.124 398.622,146.680 400.209,154.000 398.722 C 158.691 397.769,159.661 396.952,162.174 391.836 L 163.944 388.233 161.872 384.238 C 158.693 378.109,158.752 378.131,144.400 377.610 C 129.956 377.086,122.645 375.634,117.536 372.277 C 116.071 371.314,113.191 369.943,111.136 369.231 C 106.786 367.723,104.435 366.456,102.176 364.401 C 101.283 363.588,99.252 362.240,97.663 361.405 C 92.587 358.738,92.254 357.133,95.939 353.096 C 96.790 352.163,97.990 350.590,98.605 349.600 C 99.220 348.610,101.038 346.445,102.644 344.789 C 105.724 341.614,106.629 339.987,108.558 334.149 C 109.149 332.361,110.227 329.911,110.954 328.704 C 113.514 324.452,115.105 314.531,114.360 307.456 C 113.923 303.307,113.611 302.417,110.627 296.800 C 109.867 295.370,108.747 292.670,108.139 290.800 C 107.102 287.613,106.831 287.199,103.816 284.179 C 102.047 282.408,100.000 280.198,99.267 279.268 C 98.345 278.096,96.958 277.085,94.759 275.979 C 93.012 275.101,90.870 273.738,89.999 272.951 C 84.634 268.104,68.462 266.905,52.822 270.195 C 49.894 270.811,49.861 270.809,48.895 269.908 C 44.680 265.978,45.394 240.698,49.995 230.975 C 51.539 227.713,52.775 223.943,53.563 220.091 C 54.129 217.328,55.644 214.380,58.070 211.321 C 60.028 208.851,62.385 204.680,62.395 203.668 C 62.398 203.375,63.885 201.636,65.700 199.804 C 67.515 197.972,69.596 195.747,70.324 194.861 C 71.053 193.974,72.615 192.703,73.797 192.037 C 74.978 191.370,76.574 190.000,77.344 188.992 C 79.056 186.749,80.027 185.968,82.599 184.758 C 83.697 184.242,85.766 182.932,87.198 181.846 C 90.406 179.413,92.331 178.450,97.200 176.844 C 99.290 176.154,102.080 174.959,103.400 174.187 C 108.432 171.246,110.741 170.399,117.597 168.978 C 121.322 168.206,124.960 167.326,125.680 167.023 C 127.325 166.331,128.149 166.733,129.145 168.713 C 131.103 172.610,130.715 173.549,125.403 177.770 C 124.473 178.509,123.394 180.040,122.471 181.931 C 121.669 183.576,120.238 185.783,119.293 186.834 C 117.438 188.897,115.684 192.392,114.590 196.207 C 113.929 198.509,111.975 202.866,111.166 203.840 C 104.356 212.047,104.648 256.812,111.600 270.270 C 112.717 272.431,114.188 276.000,114.868 278.200 C 116.350 282.988,117.042 284.398,119.134 286.897 C 120.582 288.625,121.859 291.272,123.780 296.522 C 124.167 297.579,125.426 299.525,126.579 300.847 C 128.068 302.555,129.228 304.525,130.590 307.659 C 132.029 310.971,133.027 312.632,134.600 314.334 C 135.752 315.580,137.367 317.938,138.189 319.574 C 139.012 321.210,140.626 323.550,141.776 324.774 C 142.926 325.998,144.883 328.576,146.125 330.501 C 147.368 332.427,149.429 335.127,150.707 336.501 C 151.984 337.876,153.597 339.990,154.290 341.200 C 154.983 342.410,156.627 344.414,157.944 345.654 C 159.260 346.894,160.736 348.694,161.223 349.654 C 162.431 352.032,163.253 353.023,165.340 354.616 C 166.319 355.364,167.526 356.656,168.023 357.488 C 169.261 359.559,170.720 361.112,172.494 362.247 C 173.316 362.773,174.895 364.356,176.002 365.765 C 177.109 367.174,178.908 368.899,180.000 369.600 C 181.091 370.300,182.885 371.913,183.986 373.184 C 185.382 374.795,186.868 375.956,188.894 377.018 C 190.492 377.856,192.722 379.470,193.850 380.603 C 195.543 382.305,196.762 383.032,200.850 384.777 C 203.572 385.939,206.710 387.584,207.822 388.433 C 209.997 390.094,213.073 391.385,219.388 393.287 C 221.581 393.947,224.281 394.888,225.388 395.377 C 236.392 400.240,260.023 400.596,269.897 396.047 C 271.841 395.152,276.124 393.709,279.416 392.840 C 286.380 391.003,288.325 390.197,290.834 388.108 C 291.843 387.268,293.463 386.246,294.434 385.836 C 299.566 383.669,302.049 382.306,304.417 380.356 C 305.857 379.170,308.502 377.412,310.297 376.450 C 312.500 375.268,314.094 374.065,315.207 372.746 C 318.221 369.171,322.747 368.225,331.000 369.445 C 342.136 371.091,352.635 369.437,358.327 365.139 C 359.516 364.242,361.953 362.827,363.744 361.995 C 367.027 360.470,368.234 359.451,370.023 356.695 C 370.560 355.867,372.011 354.401,373.247 353.436 C 374.716 352.291,375.756 351.088,376.247 349.966 C 376.661 349.022,378.142 345.989,379.537 343.225 C 383.485 335.404,383.624 334.879,383.859 326.800 C 384.117 317.956,383.304 312.746,381.029 308.678 C 380.236 307.260,378.680 303.782,377.572 300.950 C 375.694 296.150,375.371 295.609,372.823 293.000 C 369.536 289.633,369.518 289.601,368.223 284.489 C 367.277 280.757,367.225 280.128,367.585 276.714 C 368.629 266.828,368.839 257.893,368.213 249.966 C 367.158 236.618,366.900 234.949,365.308 231.200 C 364.514 229.330,362.985 224.215,361.911 219.833 C 359.739 210.978,359.802 211.144,357.663 208.673 C 356.804 207.680,355.395 205.169,354.454 202.952 C 353.531 200.778,352.197 198.249,351.488 197.332 C 350.079 195.507,345.735 190.300,343.742 188.047 L 342.484 186.625 339.642 187.307 C 335.429 188.318,334.178 188.961,332.846 190.800 C 329.203 195.830,329.986 202.671,334.772 207.610 C 336.316 209.203,337.044 210.449,338.223 213.515 C 339.045 215.652,340.701 219.371,341.902 221.779 C 344.604 227.197,345.792 231.741,346.399 238.989 C 346.655 242.040,347.032 245.540,347.237 246.768 C 347.442 247.995,347.719 252.690,347.852 257.200 L 348.093 265.400 346.938 267.091 C 346.302 268.021,345.037 269.330,344.127 270.000 L 342.471 271.217 338.935 270.144 C 330.044 267.445,313.557 269.004,308.802 272.992 C 307.813 273.822,305.563 275.195,303.802 276.043 C 299.846 277.950,293.126 284.195,291.430 287.541 C 290.852 288.681,289.497 290.589,288.418 291.780 C 281.070 299.894,281.054 328.517,288.393 338.000 C 288.989 338.770,290.179 340.750,291.037 342.400 C 292.045 344.338,293.483 346.267,295.100 347.848 C 297.337 350.035,300.800 355.881,300.800 357.468 C 300.800 358.347,298.151 360.886,296.083 361.990 C 294.827 362.660,292.827 364.104,291.638 365.199 C 290.399 366.339,288.588 367.521,287.394 367.968 C 280.811 370.431,278.726 371.341,277.304 372.371 C 266.604 380.122,231.544 379.931,219.029 372.053 C 217.693 371.212,215.070 369.925,213.200 369.192 C 210.422 368.104,209.368 367.428,207.442 365.500 C 206.145 364.203,204.083 362.576,202.860 361.886 C 201.637 361.196,199.458 359.525,198.018 358.173 C 196.578 356.821,193.960 354.687,192.200 353.430 C 188.645 350.891,181.240 343.289,177.045 337.872 L 174.313 334.344 175.222 333.376 C 177.156 331.318,179.988 330.702,184.133 331.439 C 192.785 332.978,195.741 333.124,202.400 332.344 C 205.810 331.945,211.030 331.424,214.000 331.186 C 220.785 330.643,225.115 329.374,228.781 326.855 C 230.334 325.787,233.109 324.446,235.600 323.560 C 241.877 321.325,242.429 321.034,244.600 318.801 C 245.700 317.669,247.727 316.110,249.105 315.335 C 250.607 314.490,252.436 312.976,253.673 311.553 C 254.808 310.248,256.381 308.796,257.168 308.327 C 259.283 307.065,260.726 305.643,262.179 303.389 C 262.893 302.283,264.365 300.634,265.451 299.725 C 266.700 298.679,268.006 297.013,269.004 295.193 C 269.872 293.610,271.534 291.299,272.699 290.057 C 274.054 288.613,275.673 286.144,277.196 283.200 C 278.505 280.670,280.224 277.880,281.015 277.000 C 282.743 275.078,283.420 273.789,285.344 268.764 C 286.311 266.237,287.494 264.053,288.811 262.364 C 290.474 260.230,291.074 258.962,292.392 254.800 C 293.263 252.048,294.600 248.811,295.364 247.600 C 297.999 243.427,298.692 241.781,300.153 236.226 C 301.152 232.428,302.308 229.243,303.783 226.226 C 306.043 221.606,306.577 219.880,307.999 212.600 C 309.041 207.267,310.054 203.701,311.808 199.193 C 318.313 182.477,317.769 137.416,310.913 124.926 C 310.166 123.565,308.838 120.074,307.961 117.168 C 306.091 110.973,306.098 110.987,303.763 108.358 C 302.771 107.242,301.280 104.856,300.448 103.056 C 299.502 101.008,298.070 98.813,296.623 97.191 C 295.352 95.766,293.267 93.160,291.991 91.400 C 290.714 89.640,288.349 87.035,286.735 85.610 C 285.121 84.186,283.148 82.296,282.351 81.410 C 281.554 80.525,279.135 78.540,276.975 77.000 C 274.815 75.460,272.122 73.347,270.990 72.305 C 269.846 71.250,267.573 69.781,265.869 68.994 C 264.109 68.181,261.781 66.664,260.395 65.427 C 258.586 63.813,257.210 63.000,254.892 62.176 C 248.593 59.936,248.382 59.801,244.264 55.358 C 239.806 50.547,239.908 50.731,238.805 45.461 C 237.856 40.927,237.451 40.030,234.993 37.013 C 234.006 35.801,232.623 33.862,231.920 32.705 C 229.253 28.316,227.481 26.321,223.733 23.491 C 221.627 21.901,219.021 19.836,217.942 18.903 C 214.419 15.856,209.417 14.248,200.294 13.231 C 195.721 12.721,196.104 12.706,190.800 13.602 M206.156 35.090 C 207.374 36.204,209.200 37.516,210.213 38.006 C 212.965 39.338,214.091 40.457,215.503 43.262 C 216.206 44.658,217.567 46.700,218.528 47.800 C 225.308 55.564,225.399 83.173,218.667 90.369 C 217.675 91.430,216.325 93.357,215.668 94.649 C 214.256 97.426,212.542 99.142,209.800 100.524 C 208.700 101.078,206.868 102.333,205.729 103.313 C 201.396 107.041,192.067 106.674,187.294 102.587 C 186.375 101.801,184.247 100.222,182.565 99.079 L 179.506 97.000 175.330 89.077 C 171.176 81.195,171.151 81.132,170.585 76.877 C 169.510 68.803,170.201 58.933,172.097 55.266 C 172.627 54.240,174.315 50.970,175.846 48.000 C 179.548 40.819,179.397 41.021,182.600 38.999 C 184.140 38.026,186.071 36.586,186.891 35.799 C 191.788 31.095,201.398 30.742,206.156 35.090 M206.800 161.007 C 217.247 162.165,220.672 163.048,223.800 165.390 C 225.434 166.613,229.259 168.501,232.400 169.636 C 234.500 170.394,235.500 171.085,237.600 173.230 C 239.030 174.690,240.948 176.266,241.863 176.732 C 242.777 177.197,244.217 178.430,245.063 179.471 C 245.908 180.512,247.981 182.722,249.670 184.382 C 251.682 186.361,253.151 188.232,253.933 189.816 C 254.590 191.145,255.928 193.125,256.908 194.216 C 259.133 196.694,260.412 199.202,261.800 203.803 C 262.397 205.781,263.608 208.930,264.493 210.800 C 268.056 218.335,268.908 223.350,268.880 236.600 C 268.853 249.167,267.965 255.213,265.385 260.400 C 264.674 261.830,263.152 265.733,262.003 269.074 C 260.262 274.137,259.620 275.493,258.150 277.216 C 257.179 278.352,255.905 280.119,255.317 281.141 C 251.525 287.739,243.090 296.514,237.174 300.015 C 235.228 301.167,232.601 302.984,231.338 304.052 C 228.902 306.112,228.507 306.286,221.000 308.608 C 218.360 309.425,215.177 310.609,213.926 311.239 C 207.316 314.571,185.163 314.148,178.602 310.565 C 177.281 309.844,173.594 308.476,170.409 307.527 C 164.810 305.857,164.537 305.725,162.209 303.553 C 160.884 302.317,158.700 300.752,157.356 300.075 C 155.886 299.335,153.676 297.641,151.810 295.823 C 150.104 294.160,148.550 292.800,148.357 292.800 C 148.164 292.800,147.031 291.495,145.839 289.900 C 144.647 288.305,142.732 286.115,141.583 285.033 C 140.140 283.674,139.090 282.181,138.191 280.209 C 137.475 278.638,136.120 276.463,135.179 275.376 C 133.002 272.861,131.879 270.301,130.201 264.027 C 129.462 261.262,128.107 257.204,127.190 255.008 C 123.256 245.592,123.472 225.378,127.593 217.213 C 128.279 215.855,129.552 212.032,130.422 208.716 C 131.995 202.724,132.756 200.989,134.863 198.590 C 135.468 197.900,137.065 195.238,138.413 192.672 C 140.379 188.929,141.293 187.641,143.043 186.146 C 144.242 185.121,145.889 183.204,146.704 181.884 C 147.902 179.944,148.805 179.085,151.438 177.387 C 153.228 176.232,155.274 174.564,155.985 173.679 C 157.364 171.963,159.878 170.477,164.940 168.388 C 166.667 167.675,168.858 166.498,169.809 165.772 C 173.109 163.253,177.039 162.132,185.800 161.208 C 188.220 160.953,190.560 160.692,191.000 160.627 C 193.386 160.275,202.095 160.485,206.800 161.007 M187.800 183.789 C 187.580 183.858,185.913 184.320,184.095 184.814 C 179.570 186.046,178.718 187.035,176.456 193.679 C 175.503 196.479,173.935 200.069,172.961 201.679 C 171.330 204.377,170.733 205.993,167.709 215.909 C 167.154 217.729,166.198 219.911,165.584 220.759 C 163.717 223.336,162.959 225.154,161.233 231.200 C 160.221 234.745,159.090 237.778,158.325 239.000 C 156.345 242.161,156.095 242.788,155.333 246.512 L 154.615 250.025 155.512 251.716 C 156.512 253.602,161.859 258.693,164.005 259.803 C 165.301 260.473,166.424 260.502,180.541 260.239 C 197.674 259.920,196.850 259.790,199.308 263.209 L 200.400 264.728 200.400 272.838 C 200.400 283.628,200.628 284.132,207.267 288.039 C 211.980 290.813,211.540 290.987,217.655 283.921 L 220.311 280.852 220.596 277.253 C 220.752 275.274,220.751 271.751,220.592 269.426 L 220.304 265.198 221.926 263.099 C 222.819 261.945,224.820 259.799,226.375 258.332 C 228.484 256.340,229.548 254.940,230.567 252.812 L 231.934 249.960 231.154 247.680 C 229.743 243.559,228.660 241.891,226.170 240.003 C 224.867 239.015,223.035 237.423,222.100 236.467 L 220.401 234.727 220.656 230.261 C 221.119 222.150,220.661 219.264,218.466 216.475 C 217.440 215.171,215.970 213.234,215.200 212.170 C 212.863 208.942,211.858 208.583,208.980 209.952 C 201.563 213.478,200.400 215.765,200.400 226.832 L 200.400 234.914 198.457 236.857 L 196.514 238.800 192.093 238.800 C 187.044 238.800,184.263 238.004,181.768 235.846 L 180.327 234.600 181.108 233.600 C 182.565 231.736,183.553 229.330,185.035 224.038 C 186.068 220.347,186.979 218.014,188.066 216.280 C 190.220 212.843,190.870 211.288,192.369 206.000 C 193.086 203.470,194.305 200.193,195.077 198.717 L 196.481 196.034 195.541 192.178 C 194.478 187.823,190.445 183.052,188.316 183.632 C 188.252 183.649,188.020 183.720,187.800 183.789 M75.154 288.212 C 76.118 288.763,78.137 289.731,79.641 290.363 C 92.246 295.659,96.671 306.767,92.563 322.800 C 91.297 327.738,91.139 328.072,88.962 330.400 C 87.949 331.482,86.373 333.480,85.460 334.838 C 84.421 336.385,82.902 337.945,81.400 339.011 C 80.080 339.946,78.040 341.627,76.867 342.744 C 74.948 344.573,74.276 344.919,70.148 346.208 C 57.680 350.100,53.997 350.377,47.200 347.932 C 45.330 347.260,43.031 346.443,42.092 346.119 C 40.419 345.540,39.925 345.093,34.886 339.600 C 31.902 336.348,31.440 335.428,30.642 331.169 C 29.002 322.405,30.801 312.544,34.829 308.226 C 36.073 306.892,37.471 305.080,37.936 304.200 C 39.099 301.999,39.873 301.172,42.411 299.417 C 43.615 298.585,45.500 296.925,46.600 295.729 C 48.721 293.422,48.266 293.640,59.400 289.606 C 61.160 288.968,63.230 288.173,64.000 287.839 C 66.472 286.766,73.006 286.985,75.154 288.212 M332.800 290.017 C 336.821 290.571,344.304 292.972,346.031 294.262 C 349.710 297.010,353.280 300.147,354.683 301.864 C 355.517 302.885,356.964 304.598,357.897 305.670 C 362.356 310.794,365.246 323.470,363.329 329.504 C 362.818 331.114,362.400 332.739,362.400 333.115 C 362.396 342.111,342.397 352.706,332.400 349.009 C 330.970 348.480,327.370 347.296,324.400 346.377 L 319.000 344.707 315.780 341.353 C 314.010 339.509,312.358 338.000,312.111 338.000 C 311.149 338.000,309.066 335.327,307.620 332.237 C 306.787 330.456,305.459 327.943,304.669 326.650 C 300.026 319.057,300.233 308.228,305.137 302.118 C 306.217 300.772,307.658 298.698,308.338 297.509 C 310.420 293.869,314.320 291.877,322.600 290.224 C 326.976 289.351,327.834 289.333,332.800 290.017 " stroke="none" fill="#ffffff" fill-rule="evenodd"></path><path id="path1" d="M0.000 207.600 L 0.000 415.200 200.000 415.200 L 400.000 415.200 400.000 207.600 L 400.000 0.000 200.000 0.000 L 0.000 0.000 0.000 207.600 M200.294 13.231 C 209.417 14.248,214.419 15.856,217.942 18.903 C 219.021 19.836,221.627 21.901,223.733 23.491 C 227.481 26.321,229.253 28.316,231.920 32.705 C 232.623 33.862,234.006 35.801,234.993 37.013 C 237.451 40.030,237.856 40.927,238.805 45.461 C 239.908 50.731,239.806 50.547,244.264 55.358 C 248.382 59.801,248.593 59.936,254.892 62.176 C 257.210 63.000,258.586 63.813,260.395 65.427 C 261.781 66.664,264.109 68.181,265.869 68.994 C 267.573 69.781,269.846 71.250,270.990 72.305 C 272.122 73.347,274.815 75.460,276.975 77.000 C 279.135 78.540,281.554 80.525,282.351 81.410 C 283.148 82.296,285.121 84.186,286.735 85.610 C 288.349 87.035,290.714 89.640,291.991 91.400 C 293.267 93.160,295.352 95.766,296.623 97.191 C 298.070 98.813,299.502 101.008,300.448 103.056 C 301.280 104.856,302.771 107.242,303.763 108.358 C 306.098 110.987,306.091 110.973,307.961 117.168 C 308.838 120.074,310.166 123.565,310.913 124.926 C 317.769 137.416,318.313 182.477,311.808 199.193 C 310.054 203.701,309.041 207.267,307.999 212.600 C 306.577 219.880,306.043 221.606,303.783 226.226 C 302.308 229.243,301.152 232.428,300.153 236.226 C 298.692 241.781,297.999 243.427,295.364 247.600 C 294.600 248.811,293.263 252.048,292.392 254.800 C 291.074 258.962,290.474 260.230,288.811 262.364 C 287.494 264.053,286.311 266.237,285.344 268.764 C 283.420 273.789,282.743 275.078,281.015 277.000 C 280.224 277.880,278.505 280.670,277.196 283.200 C 275.673 286.144,274.054 288.613,272.699 290.057 C 271.534 291.299,269.872 293.610,269.004 295.193 C 268.006 297.013,266.700 298.679,265.451 299.725 C 264.365 300.634,262.893 302.283,262.179 303.389 C 260.726 305.643,259.283 307.065,257.168 308.327 C 256.381 308.796,254.808 310.248,253.673 311.553 C 252.436 312.976,250.607 314.490,249.105 315.335 C 247.727 316.110,245.700 317.669,244.600 318.801 C 242.429 321.034,241.877 321.325,235.600 323.560 C 233.109 324.446,230.334 325.787,228.781 326.855 C 225.115 329.374,220.785 330.643,214.000 331.186 C 211.030 331.424,205.810 331.945,202.400 332.344 C 195.741 333.124,192.785 332.978,184.133 331.439 C 179.988 330.702,177.156 331.318,175.222 333.376 L 174.313 334.344 177.045 337.872 C 181.240 343.289,188.645 350.891,192.200 353.430 C 193.960 354.687,196.578 356.821,198.018 358.173 C 199.458 359.525,201.637 361.196,202.860 361.886 C 204.083 362.576,206.145 364.203,207.442 365.500 C 209.368 367.428,210.422 368.104,213.200 369.192 C 215.070 369.925,217.693 371.212,219.029 372.053 C 229.134 378.414,251.339 379.957,269.910 375.589 C 273.474 374.751,274.839 374.157,277.304 372.371 C 278.726 371.341,280.811 370.431,287.394 367.968 C 288.588 367.521,290.399 366.339,291.638 365.199 C 292.827 364.104,294.827 362.660,296.083 361.990 C 298.151 360.886,300.800 358.347,300.800 357.468 C 300.800 355.881,297.337 350.035,295.100 347.848 C 293.483 346.267,292.045 344.338,291.037 342.400 C 290.179 340.750,288.989 338.770,288.393 338.000 C 281.054 328.517,281.070 299.894,288.418 291.780 C 289.497 290.589,290.852 288.681,291.430 287.541 C 293.126 284.195,299.846 277.950,303.802 276.043 C 305.563 275.195,307.813 273.822,308.802 272.992 C 313.557 269.004,330.044 267.445,338.935 270.144 L 342.471 271.217 344.127 270.000 C 345.037 269.330,346.302 268.021,346.938 267.091 L 348.093 265.400 347.852 257.200 C 347.719 252.690,347.442 247.995,347.237 246.768 C 347.032 245.540,346.655 242.040,346.399 238.989 C 345.792 231.741,344.604 227.197,341.902 221.779 C 340.701 219.371,339.045 215.652,338.223 213.515 C 337.044 210.449,336.316 209.203,334.772 207.610 C 329.986 202.671,329.203 195.830,332.846 190.800 C 334.178 188.961,335.429 188.318,339.642 187.307 L 342.484 186.625 343.742 188.047 C 345.735 190.300,350.079 195.507,351.488 197.332 C 352.197 198.249,353.531 200.778,354.454 202.952 C 355.395 205.169,356.804 207.680,357.663 208.673 C 359.802 211.144,359.739 210.978,361.911 219.833 C 362.985 224.215,364.514 229.330,365.308 231.200 C 366.900 234.949,367.158 236.618,368.213 249.966 C 368.839 257.893,368.629 266.828,367.585 276.714 C 367.225 280.128,367.277 280.757,368.223 284.489 C 369.518 289.601,369.536 289.633,372.823 293.000 C 375.371 295.609,375.694 296.150,377.572 300.950 C 378.680 303.782,380.236 307.260,381.029 308.678 C 383.304 312.746,384.117 317.956,383.859 326.800 C 383.624 334.879,383.485 335.404,379.537 343.225 C 378.142 345.989,376.661 349.022,376.247 349.966 C 375.756 351.088,374.716 352.291,373.247 353.436 C 372.011 354.401,370.560 355.867,370.023 356.695 C 368.234 359.451,367.027 360.470,363.744 361.995 C 361.953 362.827,359.516 364.242,358.327 365.139 C 352.635 369.437,342.136 371.091,331.000 369.445 C 322.747 368.225,318.221 369.171,315.207 372.746 C 314.094 374.065,312.500 375.268,310.297 376.450 C 308.502 377.412,305.857 379.170,304.417 380.356 C 302.049 382.306,299.566 383.669,294.434 385.836 C 293.463 386.246,291.843 387.268,290.834 388.108 C 288.325 390.197,286.380 391.003,279.416 392.840 C 276.124 393.709,271.841 395.152,269.897 396.047 C 260.023 400.596,236.392 400.240,225.388 395.377 C 224.281 394.888,221.581 393.947,219.388 393.287 C 213.073 391.385,209.997 390.094,207.822 388.433 C 206.710 387.584,203.572 385.939,200.850 384.777 C 196.762 383.032,195.543 382.305,193.850 380.603 C 192.722 379.470,190.492 377.856,188.894 377.018 C 186.868 375.956,185.382 374.795,183.986 373.184 C 182.885 371.913,181.091 370.300,180.000 369.600 C 178.908 368.899,177.109 367.174,176.002 365.765 C 174.895 364.356,173.316 362.773,172.494 362.247 C 170.720 361.112,169.261 359.559,168.023 357.488 C 167.526 356.656,166.319 355.364,165.340 354.616 C 163.253 353.023,162.431 352.032,161.223 349.654 C 160.736 348.694,159.260 346.894,157.944 345.654 C 156.627 344.414,154.983 342.410,154.290 341.200 C 153.597 339.990,151.984 337.876,150.707 336.501 C 149.429 335.127,147.368 332.427,146.125 330.501 C 144.883 328.576,142.926 325.998,141.776 324.774 C 140.626 323.550,139.012 321.210,138.189 319.574 C 137.367 317.938,135.752 315.580,134.600 314.334 C 133.027 312.632,132.029 310.971,130.590 307.659 C 129.228 304.525,128.068 302.555,126.579 300.847 C 125.426 299.525,124.167 297.579,123.780 296.522 C 121.859 291.272,120.582 288.625,119.134 286.897 C 117.042 284.398,116.350 282.988,114.868 278.200 C 114.188 276.000,112.717 272.431,111.600 270.270 C 104.648 256.812,104.356 212.047,111.166 203.840 C 111.975 202.866,113.929 198.509,114.590 196.207 C 115.684 192.392,117.438 188.897,119.293 186.834 C 120.238 185.783,121.669 183.576,122.471 181.931 C 123.394 180.040,124.473 178.509,125.403 177.770 C 130.715 173.549,131.103 172.610,129.145 168.713 C 128.149 166.733,127.325 166.331,125.680 167.023 C 124.960 167.326,121.322 168.206,117.597 168.978 C 110.741 170.399,108.432 171.246,103.400 174.187 C 102.080 174.959,99.290 176.154,97.200 176.844 C 92.331 178.450,90.406 179.413,87.198 181.846 C 85.766 182.932,83.697 184.242,82.599 184.758 C 80.027 185.968,79.056 186.749,77.344 188.992 C 76.574 190.000,74.978 191.370,73.797 192.037 C 72.615 192.703,71.053 193.974,70.324 194.861 C 69.596 195.747,67.515 197.972,65.700 199.804 C 63.885 201.636,62.398 203.375,62.395 203.668 C 62.385 204.680,60.028 208.851,58.070 211.321 C 55.644 214.380,54.129 217.328,53.563 220.091 C 52.775 223.943,51.539 227.713,49.995 230.975 C 45.394 240.698,44.680 265.978,48.895 269.908 C 49.861 270.809,49.894 270.811,52.822 270.195 C 68.462 266.905,84.634 268.104,89.999 272.951 C 90.870 273.738,93.012 275.101,94.759 275.979 C 96.958 277.085,98.345 278.096,99.267 279.268 C 100.000 280.198,102.047 282.408,103.816 284.179 C 106.831 287.199,107.102 287.613,108.139 290.800 C 108.747 292.670,109.867 295.370,110.627 296.800 C 113.611 302.417,113.923 303.307,114.360 307.456 C 115.105 314.531,113.514 324.452,110.954 328.704 C 110.227 329.911,109.149 332.361,108.558 334.149 C 106.629 339.987,105.724 341.614,102.644 344.789 C 101.038 346.445,99.220 348.610,98.605 349.600 C 97.990 350.590,96.790 352.163,95.939 353.096 C 92.254 357.133,92.587 358.738,97.663 361.405 C 99.252 362.240,101.283 363.588,102.176 364.401 C 104.435 366.456,106.786 367.723,111.136 369.231 C 113.191 369.943,116.071 371.314,117.536 372.277 C 122.645 375.634,129.956 377.086,144.400 377.610 C 158.752 378.131,158.693 378.109,161.872 384.238 L 163.944 388.233 162.174 391.836 C 159.661 396.952,158.691 397.769,154.000 398.722 C 146.680 400.209,131.124 398.622,124.667 395.729 C 122.943 394.957,118.762 393.630,115.376 392.781 C 108.526 391.064,108.613 391.100,104.356 388.190 C 102.681 387.045,100.431 385.789,99.356 385.399 C 95.122 383.862,93.313 382.846,91.234 380.837 C 90.042 379.686,88.035 378.223,86.773 377.586 C 85.511 376.949,82.886 375.143,80.939 373.572 C 74.418 368.308,74.107 368.239,62.200 369.424 C 50.198 370.619,41.751 369.286,36.337 365.343 C 35.312 364.597,32.605 363.093,30.321 362.002 C 26.037 359.956,25.001 359.114,22.874 355.950 C 22.190 354.932,20.715 353.333,19.596 352.397 C 17.154 350.352,16.561 349.250,14.208 342.380 C 13.211 339.468,12.041 336.514,11.610 335.816 C 8.036 330.033,9.162 321.031,15.880 301.690 C 16.505 299.891,17.549 298.306,21.265 293.518 C 22.511 291.913,24.695 288.350,26.118 285.600 L 28.706 280.600 27.799 276.136 C 25.209 263.380,25.396 258.338,29.435 232.000 C 31.070 221.335,32.271 217.121,34.847 213.000 C 35.986 211.177,37.182 208.400,38.205 205.200 C 39.207 202.066,39.793 201.038,41.919 198.683 C 42.953 197.538,44.700 194.980,45.800 193.000 C 47.101 190.658,48.923 188.212,51.014 186.000 C 52.782 184.130,54.726 181.926,55.333 181.102 C 55.941 180.277,57.735 178.635,59.319 177.452 C 60.904 176.268,62.830 174.630,63.600 173.810 C 65.232 172.073,68.524 169.754,71.482 168.258 C 72.628 167.678,74.663 166.224,76.006 165.026 C 77.348 163.828,79.291 162.540,80.323 162.162 C 85.342 160.329,88.084 159.028,90.050 157.551 C 93.224 155.166,93.877 154.898,100.620 153.207 C 105.114 152.081,107.582 151.225,109.696 150.060 C 113.169 148.146,117.339 146.993,122.898 146.411 C 129.837 145.684,143.023 143.610,146.090 142.764 C 166.468 137.138,200.997 137.333,218.662 143.173 C 221.928 144.252,225.964 145.501,227.631 145.948 C 232.591 147.277,235.014 148.336,236.909 150.003 C 237.894 150.870,240.387 152.371,242.450 153.338 C 244.875 154.474,247.189 155.952,249.000 157.520 C 250.540 158.853,253.240 161.097,255.000 162.507 C 256.996 164.105,259.139 166.336,260.696 168.435 C 262.069 170.286,264.444 173.180,265.973 174.867 C 267.502 176.554,269.195 178.804,269.736 179.867 C 270.277 180.930,271.955 183.060,273.465 184.600 C 276.113 187.299,276.266 187.565,277.719 192.000 C 279.605 197.759,279.745 197.991,286.200 206.121 C 288.319 208.789,288.546 208.801,289.751 206.320 C 291.007 203.735,291.695 200.535,292.787 192.192 C 293.247 188.677,293.906 183.640,294.251 181.000 C 294.595 178.360,295.396 173.717,296.029 170.682 C 297.596 163.174,297.645 157.848,296.199 152.000 C 295.628 149.690,294.634 144.559,293.990 140.598 C 292.262 129.967,290.898 125.789,287.912 121.983 C 287.300 121.204,286.082 118.774,285.203 116.583 C 282.893 110.820,282.470 110.125,280.326 108.585 C 279.161 107.748,277.697 106.112,276.645 104.471 C 275.579 102.807,274.130 101.194,272.926 100.329 C 271.841 99.549,270.514 98.340,269.976 97.641 C 267.395 94.283,266.471 93.445,263.955 92.178 C 262.464 91.426,260.178 89.864,258.876 88.706 C 254.578 84.883,251.275 83.363,246.548 83.029 L 242.495 82.743 241.693 83.871 C 240.358 85.750,239.676 87.795,238.820 92.483 C 237.975 97.109,237.073 99.075,234.948 100.918 C 234.389 101.403,232.973 103.428,231.802 105.417 C 229.009 110.159,226.825 112.526,222.371 115.639 C 220.356 117.048,217.983 118.884,217.099 119.721 C 213.944 122.705,213.191 122.918,199.200 124.782 C 197.073 125.065,195.216 124.913,189.000 123.944 C 179.864 122.520,179.682 122.455,176.845 119.591 C 175.610 118.344,173.470 116.650,172.088 115.826 C 170.707 115.002,169.087 113.677,168.488 112.881 C 167.890 112.085,166.290 110.344,164.933 109.013 C 163.135 107.247,162.097 105.780,161.101 103.596 C 160.350 101.948,158.818 99.551,157.695 98.269 C 155.789 96.091,155.585 95.646,154.587 91.473 C 153.436 86.659,152.014 82.769,150.848 81.248 L 150.119 80.297 148.359 81.318 C 147.392 81.880,145.430 82.729,144.000 83.205 C 139.926 84.559,136.220 86.692,133.140 89.454 C 131.581 90.852,129.326 92.556,128.128 93.241 C 126.890 93.949,125.253 95.376,124.338 96.544 C 123.452 97.675,121.979 99.175,121.064 99.878 C 120.149 100.581,118.911 101.535,118.313 101.998 C 117.715 102.461,116.673 103.877,115.997 105.146 C 115.321 106.414,113.650 108.723,112.284 110.276 C 110.873 111.880,109.252 114.288,108.532 115.850 C 105.794 121.786,104.323 124.689,102.999 126.767 C 102.239 127.959,101.138 130.209,100.551 131.767 C 98.749 136.550,97.120 137.808,92.276 138.164 C 86.251 138.606,84.619 137.239,83.391 130.719 L 82.661 126.842 83.759 123.121 C 85.509 117.194,85.936 116.202,88.205 112.793 C 89.384 111.020,91.000 107.891,91.795 105.839 C 93.073 102.542,93.542 101.819,95.820 99.641 C 97.239 98.284,98.862 96.262,99.427 95.148 C 100.385 93.256,102.669 90.641,108.000 85.332 C 113.703 79.653,116.086 77.558,118.206 76.362 C 119.469 75.649,121.579 73.940,122.895 72.563 C 124.212 71.187,125.854 69.837,126.544 69.565 C 129.458 68.416,132.683 66.664,134.254 65.377 C 136.187 63.793,138.821 62.411,142.067 61.276 C 148.426 59.054,152.741 53.987,154.420 46.773 C 155.448 42.354,155.543 42.150,157.903 39.253 C 158.894 38.035,160.205 35.926,160.816 34.565 C 162.349 31.149,168.370 24.642,172.521 21.918 C 174.237 20.791,175.815 19.545,176.027 19.150 C 177.238 16.887,182.044 15.082,190.800 13.602 C 196.104 12.706,195.721 12.721,200.294 13.231 M193.766 32.420 C 190.102 33.462,188.508 34.245,186.891 35.799 C 186.071 36.586,184.140 38.026,182.600 38.999 C 179.397 41.021,179.548 40.819,175.846 48.000 C 174.315 50.970,172.627 54.240,172.097 55.266 C 170.201 58.933,169.510 68.803,170.585 76.877 C 171.151 81.132,171.176 81.195,175.330 89.077 L 179.506 97.000 182.565 99.079 C 184.247 100.222,186.375 101.801,187.294 102.587 C 189.034 104.077,194.168 106.000,196.404 106.000 C 200.548 106.000,203.642 105.109,205.729 103.313 C 206.868 102.333,208.700 101.078,209.800 100.524 C 212.542 99.142,214.256 97.426,215.668 94.649 C 216.325 93.357,217.675 91.430,218.667 90.369 C 225.399 83.173,225.308 55.564,218.528 47.800 C 217.567 46.700,216.206 44.658,215.503 43.262 C 214.091 40.457,212.965 39.338,210.213 38.006 C 209.200 37.516,207.374 36.204,206.156 35.090 C 203.216 32.403,197.872 31.251,193.766 32.420 M191.000 160.627 C 190.560 160.692,188.220 160.953,185.800 161.208 C 177.039 162.132,173.109 163.253,169.809 165.772 C 168.858 166.498,166.667 167.675,164.940 168.388 C 159.878 170.477,157.364 171.963,155.985 173.679 C 155.274 174.564,153.228 176.232,151.438 177.387 C 148.805 179.085,147.902 179.944,146.704 181.884 C 145.889 183.204,144.242 185.121,143.043 186.146 C 141.293 187.641,140.379 188.929,138.413 192.672 C 137.065 195.238,135.468 197.900,134.863 198.590 C 132.756 200.989,131.995 202.724,130.422 208.716 C 129.552 212.032,128.279 215.855,127.593 217.213 C 123.472 225.378,123.256 245.592,127.190 255.008 C 128.107 257.204,129.462 261.262,130.201 264.027 C 131.879 270.301,133.002 272.861,135.179 275.376 C 136.120 276.463,137.475 278.638,138.191 280.209 C 139.090 282.181,140.140 283.674,141.583 285.033 C 142.732 286.115,144.647 288.305,145.839 289.900 C 147.031 291.495,148.164 292.800,148.357 292.800 C 148.550 292.800,150.104 294.160,151.810 295.823 C 153.676 297.641,155.886 299.335,157.356 300.075 C 158.700 300.752,160.884 302.317,162.209 303.553 C 164.537 305.725,164.810 305.857,170.409 307.527 C 173.594 308.476,177.281 309.844,178.602 310.565 C 185.163 314.148,207.316 314.571,213.926 311.239 C 215.177 310.609,218.360 309.425,221.000 308.608 C 228.507 306.286,228.902 306.112,231.338 304.052 C 232.601 302.984,235.228 301.167,237.174 300.015 C 243.090 296.514,251.525 287.739,255.317 281.141 C 255.905 280.119,257.179 278.352,258.150 277.216 C 259.620 275.493,260.262 274.137,262.003 269.074 C 263.152 265.733,264.674 261.830,265.385 260.400 C 267.965 255.213,268.853 249.167,268.880 236.600 C 268.908 223.350,268.056 218.335,264.493 210.800 C 263.608 208.930,262.397 205.781,261.800 203.803 C 260.412 199.202,259.133 196.694,256.908 194.216 C 255.928 193.125,254.590 191.145,253.933 189.816 C 253.151 188.232,251.682 186.361,249.670 184.382 C 247.981 182.722,245.908 180.512,245.063 179.471 C 244.217 178.430,242.777 177.197,241.863 176.732 C 240.948 176.266,239.030 174.690,237.600 173.230 C 235.500 171.085,234.500 170.394,232.400 169.636 C 229.259 168.501,225.434 166.613,223.800 165.390 C 220.672 163.048,217.247 162.165,206.800 161.007 C 202.095 160.485,193.386 160.275,191.000 160.627 M189.936 184.368 C 193.102 185.982,194.507 187.941,195.541 192.178 L 196.481 196.034 195.077 198.717 C 194.305 200.193,193.086 203.470,192.369 206.000 C 190.870 211.288,190.220 212.843,188.066 216.280 C 186.979 218.014,186.068 220.347,185.035 224.038 C 183.553 229.330,182.565 231.736,181.108 233.600 L 180.327 234.600 181.768 235.846 C 184.263 238.004,187.044 238.800,192.093 238.800 L 196.514 238.800 198.457 236.857 L 200.400 234.914 200.400 226.832 C 200.400 215.765,201.563 213.478,208.980 209.952 C 211.858 208.583,212.863 208.942,215.200 212.170 C 215.970 213.234,217.440 215.171,218.466 216.475 C 220.661 219.264,221.119 222.150,220.656 230.261 L 220.401 234.727 222.100 236.467 C 223.035 237.423,224.867 239.015,226.170 240.003 C 228.660 241.891,229.743 243.559,231.154 247.680 L 231.934 249.960 230.567 252.812 C 229.548 254.940,228.484 256.340,226.375 258.332 C 224.820 259.799,222.819 261.945,221.926 263.099 L 220.304 265.198 220.592 269.426 C 220.751 271.751,220.752 275.274,220.596 277.253 L 220.311 280.852 217.655 283.921 C 211.540 290.987,211.980 290.813,207.267 288.039 C 200.628 284.132,200.400 283.628,200.400 272.838 L 200.400 264.728 199.308 263.209 C 196.850 259.790,197.674 259.920,180.541 260.239 C 166.424 260.502,165.301 260.473,164.005 259.803 C 161.859 258.693,156.512 253.602,155.512 251.716 L 154.615 250.025 155.333 246.512 C 156.095 242.788,156.345 242.161,158.325 239.000 C 159.090 237.778,160.221 234.745,161.233 231.200 C 162.959 225.154,163.717 223.336,165.584 220.759 C 166.198 219.911,167.154 217.729,167.709 215.909 C 170.733 205.993,171.330 204.377,172.961 201.679 C 173.935 200.069,175.503 196.479,176.456 193.679 C 178.718 187.035,179.570 186.046,184.095 184.814 C 185.913 184.320,187.580 183.858,187.800 183.789 C 188.020 183.720,188.252 183.649,188.316 183.632 C 188.380 183.614,189.109 183.945,189.936 184.368 M64.000 287.839 C 63.230 288.173,61.160 288.968,59.400 289.606 C 48.266 293.640,48.721 293.422,46.600 295.729 C 45.500 296.925,43.615 298.585,42.411 299.417 C 39.873 301.172,39.099 301.999,37.936 304.200 C 37.471 305.080,36.073 306.892,34.829 308.226 C 30.801 312.544,29.002 322.405,30.642 331.169 C 31.440 335.428,31.902 336.348,34.886 339.600 C 39.925 345.093,40.419 345.540,42.092 346.119 C 43.031 346.443,45.330 347.260,47.200 347.932 C 53.997 350.377,57.680 350.100,70.148 346.208 C 74.276 344.919,74.948 344.573,76.867 342.744 C 78.040 341.627,80.080 339.946,81.400 339.011 C 82.902 337.945,84.421 336.385,85.460 334.838 C 86.373 333.480,87.949 331.482,88.962 330.400 C 91.139 328.072,91.297 327.738,92.563 322.800 C 96.671 306.767,92.246 295.659,79.641 290.363 C 78.137 289.731,76.118 288.763,75.154 288.212 C 73.006 286.985,66.472 286.766,64.000 287.839 M322.600 290.224 C 314.320 291.877,310.420 293.869,308.338 297.509 C 307.658 298.698,306.217 300.772,305.137 302.118 C 300.233 308.228,300.026 319.057,304.669 326.650 C 305.459 327.943,306.787 330.456,307.620 332.237 C 309.066 335.327,311.149 338.000,312.111 338.000 C 312.358 338.000,314.010 339.509,315.780 341.353 L 319.000 344.707 324.400 346.377 C 327.370 347.296,330.970 348.480,332.400 349.009 C 342.397 352.706,362.396 342.111,362.400 333.115 C 362.400 332.739,362.818 331.114,363.329 329.504 C 365.246 323.470,362.356 310.794,357.897 305.670 C 356.964 304.598,355.517 302.885,354.683 301.864 C 353.280 300.147,349.710 297.010,346.031 294.262 C 344.304 292.972,336.821 290.571,332.800 290.017 C 327.834 289.333,326.976 289.351,322.600 290.224 " stroke="none" fill="#0b0b0b" fill-rule="evenodd"></path></g></svg>