<svg id="svg" version="1.1" xmlns="http://www.w3.org/2000/svg" xmlns:xlink="http://www.w3.org/1999/xlink" width="400" height="415.6862745098039" viewBox="0, 0, 400,415.6862745098039"><g id="svgg"><path id="path0" d="M35.200 9.220 C 30.007 9.635,27.697 10.221,25.725 11.623 C 24.804 12.277,22.525 13.515,20.659 14.373 C 18.369 15.426,16.770 16.478,15.734 17.613 C 14.890 18.537,13.199 20.308,11.975 21.547 C 8.691 24.873,8.148 25.842,6.811 30.761 C 4.227 40.264,4.400 27.518,4.400 208.072 C 4.400 387.662,4.251 375.961,6.646 383.982 C 8.255 389.370,8.780 390.328,11.333 392.542 C 12.638 393.674,14.321 395.403,15.073 396.384 C 16.437 398.163,19.346 400.395,20.307 400.398 C 20.586 400.399,22.386 401.039,24.307 401.821 C 26.228 402.602,29.240 403.721,31.000 404.308 L 34.200 405.375 125.000 405.588 L 215.800 405.800 218.400 404.954 C 224.100 403.098,226.834 400.980,228.396 397.209 C 229.312 394.998,226.923 387.924,224.698 386.264 C 221.569 383.927,225.627 384.020,126.200 384.005 L 35.400 383.990 33.089 382.695 C 30.539 381.266,26.532 376.952,25.201 374.203 C 24.399 372.546,24.397 372.115,24.499 207.171 L 24.600 41.800 25.849 39.165 C 27.407 35.877,29.230 34.029,32.509 32.415 L 35.064 31.157 44.432 31.031 C 58.502 30.840,60.266 30.148,62.417 23.969 C 63.834 19.897,63.846 19.544,62.649 16.974 C 59.233 9.639,52.779 7.815,35.200 9.220 M104.635 9.588 C 102.888 10.420,95.706 17.639,95.396 18.875 C 95.137 19.905,96.680 23.632,97.601 24.201 C 97.830 24.342,98.713 25.399,99.562 26.548 C 100.639 28.006,101.844 29.032,103.547 29.939 L 105.987 31.240 236.294 31.200 C 380.986 31.156,371.570 30.983,374.316 33.729 C 375.473 34.886,375.958 35.907,376.858 39.080 L 377.970 43.000 377.985 207.670 L 378.000 372.340 377.174 376.070 C 375.785 382.343,375.029 383.110,368.743 384.634 L 364.600 385.637 315.800 385.599 C 264.750 385.559,263.116 385.610,261.277 387.289 C 260.051 388.408,255.600 395.172,255.600 395.916 C 255.600 398.202,261.848 404.129,265.024 404.856 C 268.278 405.601,370.209 405.668,372.400 404.926 C 385.875 400.365,389.208 398.645,391.832 394.898 C 395.074 390.269,395.405 390.000,397.870 390.000 L 400.000 390.000 400.000 208.400 L 400.000 26.800 397.964 26.800 C 395.608 26.800,395.600 26.793,391.978 21.504 C 389.284 17.568,389.100 17.437,379.546 12.620 C 375.339 10.500,373.087 9.598,371.546 9.417 C 366.363 8.810,105.921 8.976,104.635 9.588 M182.348 157.982 C 181.549 158.415,180.199 159.521,179.348 160.440 C 178.497 161.359,177.304 162.566,176.698 163.123 C 176.092 163.680,175.012 165.046,174.298 166.159 L 173.000 168.183 172.977 181.791 C 172.953 196.196,172.494 200.555,170.421 206.034 L 169.727 207.868 170.843 209.118 C 173.220 211.778,173.996 222.554,172.736 235.400 C 172.036 242.532,172.922 244.952,177.600 248.683 C 180.841 251.268,183.807 252.433,185.565 251.812 C 194.033 248.825,195.497 245.661,195.084 231.239 L 194.849 223.000 197.148 220.760 L 199.448 218.520 207.438 218.312 L 215.429 218.104 221.015 215.211 C 230.857 210.113,233.343 207.862,237.010 200.726 C 238.284 198.248,239.516 196.354,239.942 196.218 C 241.233 195.809,241.600 194.178,241.600 188.863 L 241.600 183.765 240.229 181.582 C 239.475 180.382,237.905 177.600,236.741 175.400 C 234.107 170.421,230.016 166.088,225.800 163.812 C 224.260 162.981,221.792 161.489,220.316 160.496 C 215.972 157.575,215.412 157.494,198.600 157.335 C 184.492 157.202,183.732 157.232,182.348 157.982 M70.490 159.033 L 66.448 159.466 62.019 163.582 C 59.584 165.846,57.515 168.081,57.422 168.549 C 57.329 169.017,57.149 170.017,57.022 170.770 C 56.596 173.305,56.767 240.948,57.207 244.053 C 57.688 247.440,58.733 248.796,63.774 252.572 L 66.548 254.650 70.574 252.867 C 78.163 249.505,78.071 249.711,78.377 235.243 C 78.636 223.004,78.660 222.862,80.822 221.043 C 81.985 220.064,82.320 220.000,86.246 220.000 C 99.214 220.000,101.843 218.735,103.051 211.916 C 104.573 203.325,98.501 198.404,86.375 198.401 C 80.024 198.399,77.910 195.686,78.301 188.033 L 78.513 183.866 80.246 182.133 L 81.979 180.400 90.489 180.397 C 105.532 180.392,107.700 179.374,110.048 171.217 C 111.300 166.866,109.097 163.622,102.800 160.545 L 99.000 158.688 86.766 158.644 C 80.038 158.620,72.714 158.795,70.490 159.033 M212.282 181.266 C 217.215 182.503,217.876 183.197,218.635 187.934 C 218.963 189.987,219.133 191.980,219.012 192.363 C 218.194 194.938,210.393 198.092,203.589 198.598 L 199.777 198.882 198.117 197.081 C 195.173 193.887,194.754 192.641,195.059 187.993 L 195.323 183.964 197.305 182.182 L 199.287 180.400 204.058 180.400 C 207.620 180.400,209.704 180.619,212.282 181.266 M320.330 194.017 C 315.521 194.578,309.627 196.756,307.927 198.600 C 304.950 201.829,301.690 205.038,299.908 206.493 C 298.361 207.757,297.881 208.523,296.774 211.493 L 295.467 215.000 295.434 223.400 C 295.398 232.273,296.149 236.768,298.411 241.217 C 299.797 243.943,307.162 251.051,309.808 252.215 C 311.124 252.794,313.100 253.943,314.200 254.769 C 317.154 256.985,317.441 257.084,321.861 257.395 C 326.897 257.749,330.180 256.860,334.681 253.921 C 336.304 252.862,338.659 251.474,339.916 250.836 C 342.479 249.534,343.778 248.263,345.329 245.538 C 345.912 244.515,347.264 242.715,348.333 241.538 C 352.765 236.666,354.458 228.940,353.196 219.345 C 352.525 214.238,351.858 212.765,347.768 207.346 C 341.481 199.018,337.692 196.284,330.040 194.555 C 325.623 193.557,324.708 193.506,320.330 194.017 M119.337 195.382 C 118.212 196.140,116.720 197.444,116.021 198.280 L 114.749 199.800 115.013 203.800 C 115.319 208.438,117.685 213.729,121.242 217.729 C 125.407 222.413,125.500 224.378,121.733 228.058 C 120.751 229.016,119.298 230.880,118.504 232.200 C 117.710 233.520,116.265 235.658,115.294 236.952 C 113.881 238.833,113.335 240.063,112.566 243.094 L 111.605 246.883 112.403 248.005 C 114.231 250.572,121.202 254.978,122.564 254.427 C 123.244 254.153,125.260 253.387,127.045 252.726 C 130.689 251.376,131.869 250.445,133.843 247.359 C 136.291 243.532,136.398 243.479,141.000 243.783 C 145.367 244.072,146.470 244.651,147.892 247.400 C 149.698 250.893,151.632 252.290,156.296 253.475 C 160.993 254.667,161.570 254.541,163.545 251.895 C 168.277 245.550,167.450 238.186,161.426 233.040 C 159.456 231.357,159.206 230.938,158.055 227.380 C 156.556 222.751,156.617 222.552,160.772 218.474 C 162.321 216.953,163.973 214.851,164.602 213.600 C 165.210 212.390,166.250 210.609,166.913 209.642 L 168.119 207.883 167.481 205.042 C 167.130 203.479,166.724 201.589,166.577 200.843 C 165.229 193.964,153.795 192.612,149.343 198.805 C 148.633 199.792,147.404 201.346,146.613 202.258 L 145.174 203.916 141.153 204.203 L 137.132 204.491 135.753 203.154 C 134.994 202.419,133.848 200.887,133.207 199.750 C 131.645 196.983,130.191 196.043,126.067 195.135 C 124.160 194.715,122.326 194.289,121.992 194.188 C 121.657 194.087,120.462 194.624,119.337 195.382 M250.000 197.038 C 247.910 197.814,245.708 198.638,245.106 198.870 C 243.281 199.574,243.150 200.822,242.828 220.600 C 242.353 249.696,242.601 250.682,250.948 252.955 C 255.390 254.164,255.094 254.230,258.421 251.284 C 262.019 248.097,263.647 243.527,264.623 233.878 C 265.374 226.446,273.398 220.999,288.281 217.818 C 291.191 217.197,291.600 216.434,291.600 211.633 L 291.600 207.324 290.057 204.962 C 287.723 201.390,286.958 200.856,282.563 199.740 L 278.647 198.746 275.223 200.473 L 271.800 202.200 267.251 202.187 L 262.702 202.174 260.451 199.710 C 256.334 195.203,255.511 194.993,250.000 197.038 M327.319 215.724 C 327.421 215.986,328.700 217.862,330.161 219.892 L 332.817 223.585 332.204 225.052 C 331.867 225.859,331.310 227.617,330.966 228.960 C 330.290 231.598,328.440 233.955,326.372 234.812 C 324.771 235.475,318.139 233.414,316.841 231.850 C 315.640 230.403,314.376 223.607,315.059 222.270 C 316.612 219.229,316.926 218.964,323.512 215.137 C 325.395 214.043,326.743 214.251,327.319 215.724 " stroke="none" fill="#ffffff" fill-rule="evenodd"></path><path id="path1" d="M0.000 207.800 L 0.000 415.600 200.000 415.600 L 400.000 415.600 400.000 402.800 L 400.000 390.000 397.870 390.000 C 395.405 390.000,395.074 390.269,391.832 394.898 C 389.208 398.645,385.875 400.365,372.400 404.926 C 370.209 405.668,268.278 405.601,265.024 404.856 C 261.848 404.129,255.600 398.202,255.600 395.916 C 255.600 395.172,260.051 388.408,261.277 387.289 C 263.116 385.610,264.750 385.559,315.800 385.599 L 364.600 385.637 368.743 384.634 C 375.029 383.110,375.785 382.343,377.174 376.070 L 378.000 372.340 377.985 207.670 L 377.970 43.000 376.858 39.080 C 375.958 35.907,375.473 34.886,374.316 33.729 C 371.570 30.983,380.986 31.156,236.294 31.200 L 105.987 31.240 103.547 29.939 C 101.844 29.032,100.639 28.006,99.562 26.548 C 98.713 25.399,97.830 24.342,97.601 24.201 C 96.705 23.647,95.137 19.906,95.386 18.914 C 95.651 17.858,101.731 11.519,103.906 10.031 L 105.211 9.138 238.009 9.168 C 328.164 9.188,371.400 9.331,372.657 9.613 C 373.676 9.841,376.959 11.278,379.954 12.806 C 389.180 17.514,389.311 17.608,391.978 21.504 C 395.600 26.793,395.608 26.800,397.964 26.800 L 400.000 26.800 400.000 13.400 L 400.000 0.000 200.000 0.000 L 0.000 0.000 0.000 207.800 M53.657 9.551 C 58.621 11.259,60.841 13.091,62.649 16.974 C 63.846 19.544,63.834 19.897,62.417 23.969 C 60.266 30.148,58.502 30.840,44.432 31.031 L 35.064 31.157 32.509 32.415 C 29.230 34.029,27.407 35.877,25.849 39.165 L 24.600 41.800 24.499 207.171 C 24.397 372.115,24.399 372.546,25.201 374.203 C 26.532 376.952,30.539 381.266,33.089 382.695 L 35.400 383.990 126.200 384.005 C 225.627 384.020,221.569 383.927,224.698 386.264 C 226.923 387.924,229.312 394.998,228.396 397.209 C 226.834 400.980,224.100 403.098,218.400 404.954 L 215.800 405.800 125.000 405.588 L 34.200 405.375 31.000 404.308 C 29.240 403.721,26.228 402.602,24.307 401.821 C 22.386 401.039,20.586 400.399,20.307 400.398 C 19.346 400.395,16.437 398.163,15.073 396.384 C 14.321 395.403,12.638 393.674,11.333 392.542 C 8.780 390.328,8.255 389.370,6.646 383.982 C 4.251 375.961,4.400 387.662,4.400 208.072 C 4.400 27.518,4.227 40.264,6.811 30.761 C 8.148 25.842,8.691 24.873,11.975 21.547 C 13.199 20.308,14.890 18.537,15.734 17.613 C 16.770 16.478,18.369 15.426,20.659 14.373 C 22.525 13.515,24.804 12.277,25.725 11.623 C 29.321 9.066,48.181 7.667,53.657 9.551 M215.516 158.083 C 216.679 158.417,218.839 159.503,220.316 160.496 C 221.792 161.489,224.260 162.981,225.800 163.812 C 230.016 166.088,234.107 170.421,236.741 175.400 C 237.905 177.600,239.475 180.382,240.229 181.582 L 241.600 183.765 241.600 188.863 C 241.600 194.178,241.233 195.809,239.942 196.218 C 239.516 196.354,238.284 198.248,237.010 200.726 C 233.343 207.862,230.857 210.113,221.015 215.211 L 215.429 218.104 207.438 218.312 L 199.448 218.520 197.148 220.760 L 194.849 223.000 195.084 231.239 C 195.497 245.661,194.033 248.825,185.565 251.812 C 183.807 252.433,180.841 251.268,177.600 248.683 C 172.922 244.952,172.036 242.532,172.736 235.400 C 173.996 222.554,173.220 211.778,170.843 209.118 L 169.727 207.868 170.421 206.034 C 172.494 200.555,172.953 196.196,172.977 181.791 L 173.000 168.183 174.298 166.159 C 175.012 165.046,176.092 163.680,176.698 163.123 C 177.304 162.566,178.497 161.359,179.348 160.440 C 182.464 157.078,181.855 157.177,198.600 157.335 C 210.325 157.446,213.840 157.601,215.516 158.083 M102.800 160.545 C 109.097 163.622,111.300 166.866,110.048 171.217 C 107.700 179.374,105.532 180.392,90.489 180.397 L 81.979 180.400 80.246 182.133 L 78.513 183.866 78.301 188.033 C 77.910 195.686,80.024 198.399,86.375 198.401 C 98.501 198.404,104.573 203.325,103.051 211.916 C 101.843 218.735,99.214 220.000,86.246 220.000 C 82.320 220.000,81.985 220.064,80.822 221.043 C 78.660 222.862,78.636 223.004,78.377 235.243 C 78.071 249.711,78.163 249.505,70.574 252.867 L 66.548 254.650 63.774 252.572 C 58.733 248.796,57.688 247.440,57.207 244.053 C 56.767 240.948,56.596 173.305,57.022 170.770 C 57.149 170.017,57.329 169.017,57.422 168.549 C 57.515 168.081,59.584 165.846,62.019 163.582 L 66.448 159.466 70.490 159.033 C 72.714 158.795,80.038 158.620,86.766 158.644 L 99.000 158.688 102.800 160.545 M197.305 182.182 L 195.323 183.964 195.059 187.993 C 194.754 192.641,195.173 193.887,198.117 197.081 L 199.777 198.882 203.589 198.598 C 210.393 198.092,218.194 194.938,219.012 192.363 C 219.558 190.641,218.078 184.238,216.886 183.166 C 215.060 181.525,209.842 180.400,204.058 180.400 L 199.287 180.400 197.305 182.182 M330.040 194.555 C 337.692 196.284,341.481 199.018,347.768 207.346 C 351.858 212.765,352.525 214.238,353.196 219.345 C 354.458 228.940,352.765 236.666,348.333 241.538 C 347.264 242.715,345.912 244.515,345.329 245.538 C 343.778 248.263,342.479 249.534,339.916 250.836 C 338.659 251.474,336.304 252.862,334.681 253.921 C 330.180 256.860,326.897 257.749,321.861 257.395 C 317.441 257.084,317.154 256.985,314.200 254.769 C 313.100 253.943,311.124 252.794,309.808 252.215 C 307.162 251.051,299.797 243.943,298.411 241.217 C 296.149 236.768,295.398 232.273,295.434 223.400 L 295.467 215.000 296.774 211.493 C 297.881 208.523,298.361 207.757,299.908 206.493 C 301.690 205.038,304.950 201.829,307.927 198.600 C 310.168 196.168,317.717 193.903,324.407 193.653 C 325.181 193.624,327.716 194.030,330.040 194.555 M126.067 195.135 C 130.191 196.043,131.645 196.983,133.207 199.750 C 133.848 200.887,134.994 202.419,135.753 203.154 L 137.132 204.491 141.153 204.203 L 145.174 203.916 146.613 202.258 C 147.404 201.346,148.633 199.792,149.343 198.805 C 151.403 195.939,152.582 195.355,156.952 195.034 C 161.996 194.664,165.818 196.971,166.577 200.843 C 166.724 201.589,167.130 203.479,167.481 205.042 L 168.119 207.883 166.913 209.642 C 166.250 210.609,165.210 212.390,164.602 213.600 C 163.973 214.851,162.321 216.953,160.772 218.474 C 156.617 222.552,156.556 222.751,158.055 227.380 C 159.206 230.938,159.456 231.357,161.426 233.040 C 167.450 238.186,168.277 245.550,163.545 251.895 C 161.570 254.541,160.993 254.667,156.296 253.475 C 151.632 252.290,149.698 250.893,147.892 247.400 C 146.470 244.651,145.367 244.072,141.000 243.783 C 136.398 243.479,136.291 243.532,133.843 247.359 C 131.869 250.445,130.689 251.376,127.045 252.726 C 125.260 253.387,123.244 254.153,122.564 254.427 C 121.202 254.978,114.231 250.572,112.403 248.005 L 111.605 246.883 112.566 243.094 C 113.335 240.063,113.881 238.833,115.294 236.952 C 116.265 235.658,117.710 233.520,118.504 232.200 C 119.298 230.880,120.751 229.016,121.733 228.058 C 125.500 224.378,125.407 222.413,121.242 217.729 C 117.685 213.729,115.319 208.438,115.013 203.800 L 114.749 199.800 116.021 198.280 C 117.598 196.392,121.175 193.941,121.992 194.188 C 122.326 194.289,124.160 194.715,126.067 195.135 M256.800 196.424 C 257.570 196.876,259.213 198.355,260.451 199.710 L 262.702 202.174 267.251 202.187 L 271.800 202.200 275.223 200.473 L 278.647 198.746 282.563 199.740 C 286.958 200.856,287.723 201.390,290.057 204.962 L 291.600 207.324 291.600 211.633 C 291.600 216.434,291.191 217.197,288.281 217.818 C 273.398 220.999,265.374 226.446,264.623 233.878 C 263.647 243.527,262.019 248.097,258.421 251.284 C 255.094 254.230,255.390 254.164,250.948 252.955 C 242.601 250.682,242.353 249.696,242.828 220.600 C 243.150 200.822,243.281 199.574,245.106 198.870 C 254.334 195.312,254.754 195.224,256.800 196.424 M323.512 215.137 C 316.926 218.964,316.612 219.229,315.059 222.270 C 314.376 223.607,315.640 230.403,316.841 231.850 C 318.139 233.414,324.771 235.475,326.372 234.812 C 328.440 233.955,330.290 231.598,330.966 228.960 C 331.310 227.617,331.867 225.859,332.204 225.052 L 332.817 223.585 330.161 219.892 C 328.700 217.862,327.421 215.986,327.319 215.724 C 326.743 214.251,325.395 214.043,323.512 215.137 " stroke="none" fill="none" fill-rule="evenodd"></path></g></svg>