<svg id="svg" version="1.1" xmlns="http://www.w3.org/2000/svg" xmlns:xlink="http://www.w3.org/1999/xlink" width="400" height="400" viewBox="0, 0, 400,400"><g id="svgg"><path id="path0" d="M39.776 8.981 C 25.126 13.584,13.997 24.064,8.429 38.500 C 5.409 46.328,5.409 354.672,8.429 362.500 C 13.144 374.724,22.320 384.451,34.603 390.246 L 41.500 393.500 198.500 393.500 C 349.885 393.500,355.697 393.432,361.000 391.609 C 376.245 386.366,387.282 374.279,391.426 358.284 C 394.097 347.978,393.772 50.089,391.080 41.238 C 386.096 24.849,375.125 13.896,358.682 8.895 C 349.289 6.039,48.884 6.119,39.776 8.981 M362.440 18.602 C 369.242 21.822,376.635 28.977,381.106 36.663 L 384.500 42.500 384.500 200.000 L 384.500 357.500 381.621 363.000 C 375.589 374.524,368.499 380.809,357.760 384.152 C 352.094 385.915,344.843 386.000,199.507 386.000 L 47.192 386.000 40.052 383.584 C 28.103 379.542,19.171 370.127,15.628 357.840 C 13.026 348.813,12.777 53.565,15.365 44.143 C 18.411 33.048,25.451 24.379,35.718 19.081 L 41.500 16.096 199.223 16.048 L 356.945 16.000 362.440 18.602 M174.646 135.750 C 173.873 137.262,172.913 140.075,172.513 142.000 C 171.293 147.859,168.261 151.851,164.181 152.968 C 151.645 156.400,150.943 161.165,162.453 164.697 C 169.191 166.765,171.004 168.969,172.888 177.392 C 175.317 188.244,179.823 188.369,182.947 177.671 C 185.827 167.807,185.734 167.924,193.860 164.054 C 203.653 159.390,203.711 156.646,194.091 153.225 C 186.672 150.587,185.785 149.615,183.409 141.505 C 180.703 132.272,177.499 130.168,174.646 135.750 M181.400 154.600 C 185.890 159.090,185.880 159.356,181.014 164.221 C 177.036 168.199,177.027 168.202,176.129 165.853 C 175.634 164.559,174.278 162.643,173.115 161.595 C 170.459 159.203,170.416 157.320,172.998 156.501 C 174.096 156.152,175.270 154.772,175.606 153.433 C 176.417 150.201,177.148 150.348,181.400 154.600 M244.667 153.667 C 244.300 154.033,244.000 155.323,244.000 156.532 C 244.000 159.506,240.737 163.452,236.996 165.002 C 233.391 166.495,233.542 168.368,237.305 168.814 C 240.460 169.188,244.000 173.323,244.000 176.635 C 244.000 180.430,246.422 179.369,248.764 174.548 C 250.593 170.783,251.581 169.921,255.166 168.955 L 259.405 167.814 256.952 165.923 C 255.604 164.884,253.703 163.767,252.729 163.443 C 251.756 163.118,249.835 160.635,248.463 157.926 C 245.831 152.733,245.722 152.611,244.667 153.667 M210.362 158.499 C 210.020 159.391,210.965 161.113,212.695 162.749 C 215.027 164.954,216.154 167.682,218.378 176.500 C 219.903 182.550,221.838 189.667,222.678 192.315 C 224.703 198.706,225.400 198.454,204.669 198.828 C 179.232 199.287,174.438 198.694,173.125 194.928 C 171.344 189.821,167.000 192.256,167.000 198.362 C 167.000 204.426,169.637 205.001,197.385 204.986 C 225.735 204.971,226.391 204.885,228.016 200.962 C 229.937 196.324,224.322 171.037,219.338 161.879 C 216.551 156.760,211.727 154.943,210.362 158.499 M189.193 186.924 C 183.667 187.593,181.314 189.468,183.180 191.716 C 184.416 193.206,211.570 193.559,213.848 192.115 C 220.632 187.816,206.467 184.833,189.193 186.924 M143.828 219.037 C 136.707 223.192,127.469 263.718,132.680 267.940 C 138.107 272.339,186.847 271.689,189.802 267.179 C 193.872 260.968,186.613 224.987,180.287 220.011 C 177.445 217.776,147.366 216.972,143.828 219.037 M218.672 220.172 C 215.234 222.736,214.621 224.264,210.923 239.500 C 202.984 272.216,201.582 270.519,236.477 270.450 C 271.229 270.382,271.474 270.189,266.030 247.208 C 261.442 227.840,260.230 224.384,256.841 220.995 L 253.846 218.000 237.673 218.032 C 222.811 218.061,221.271 218.234,218.672 220.172 M177.034 226.794 C 178.954 229.165,186.403 258.670,185.831 261.641 C 185.328 264.259,140.128 265.064,137.995 262.494 C 134.791 258.633,144.572 226.515,149.407 225.018 C 155.596 223.102,175.058 224.353,177.034 226.794 M254.103 227.000 C 257.030 231.032,263.741 261.918,261.939 263.059 C 259.531 264.582,215.450 264.247,214.163 262.696 C 212.163 260.287,220.523 227.689,223.773 225.223 C 227.256 222.580,251.944 224.027,254.103 227.000 M148.250 252.662 C 146.470 253.380,146.701 256.671,148.582 257.393 C 151.795 258.626,174.431 257.989,176.241 256.615 C 180.887 253.087,155.931 249.563,148.250 252.662 M223.622 253.865 C 220.793 256.991,225.736 258.238,239.372 257.838 C 251.603 257.480,254.375 256.518,251.493 253.636 C 248.911 251.054,225.995 251.243,223.622 253.865 " stroke="none" fill="#000000" fill-rule="evenodd"></path></g></svg>