<svg id="svg" version="1.1" xmlns="http://www.w3.org/2000/svg" xmlns:xlink="http://www.w3.org/1999/xlink" width="400" height="397" viewBox="0, 0, 400,397"><g id="svgg"><path id="path0" d="M39.893 9.389 C 21.615 15.559,10.561 30.067,8.950 50.000 C 7.799 64.251,7.820 342.642,8.974 351.513 C 11.156 368.298,22.366 381.900,39.500 388.557 C 47.219 391.556,351.286 391.605,360.000 388.609 C 371.530 384.644,382.155 375.281,387.590 364.297 L 390.458 358.500 391.108 311.500 C 392.196 232.886,392.099 52.205,390.966 45.222 C 388.103 27.577,374.562 13.163,356.408 8.434 C 351.737 7.217,327.833 7.012,198.701 7.079 L 46.500 7.159 39.893 9.389 M361.192 18.295 C 369.583 22.416,376.111 28.772,380.086 36.695 L 383.500 43.500 383.786 198.077 L 384.071 352.655 381.023 359.450 C 377.112 368.167,368.333 376.910,360.186 380.202 L 354.500 382.500 201.534 382.760 C 49.918 383.017,48.513 383.001,42.441 380.980 C 31.465 377.328,22.313 368.285,18.054 356.884 L 15.957 351.269 16.228 197.384 L 16.500 43.500 19.880 36.766 C 23.778 28.997,30.754 21.960,37.741 18.750 C 44.827 15.493,49.708 15.400,210.000 15.452 L 355.500 15.500 361.192 18.295 M244.352 131.633 C 241.050 132.370,241.027 132.797,241.029 194.000 C 241.031 251.874,241.188 254.495,244.620 253.835 C 246.427 253.487,246.519 251.255,247.000 196.516 L 247.500 139.559 250.000 138.294 C 253.016 136.768,255.996 136.668,259.435 137.975 L 262.000 138.950 262.000 193.910 C 262.000 250.500,262.232 254.000,265.975 254.000 C 267.961 254.000,268.001 253.435,268.052 224.750 C 268.146 172.543,267.908 132.574,267.501 132.168 C 266.889 131.556,246.779 131.091,244.352 131.633 M172.500 172.700 C 168.084 173.734,168.000 174.493,168.000 213.257 C 168.000 249.926,168.343 254.000,171.428 254.000 C 173.819 254.000,174.000 251.436,174.000 217.483 C 174.000 178.451,173.898 178.994,181.225 179.015 C 190.079 179.041,189.457 176.280,189.838 217.209 C 190.187 254.605,190.348 255.955,194.196 253.895 C 195.887 252.990,196.000 250.498,196.000 214.080 L 196.000 175.230 193.535 173.615 C 191.139 172.045,177.779 171.464,172.500 172.700 M133.250 193.662 C 131.618 194.321,131.418 253.522,133.044 254.527 C 134.716 255.560,138.264 252.663,144.031 245.555 C 150.765 237.255,152.392 237.277,152.796 245.675 C 153.139 252.836,155.217 255.791,157.608 252.521 C 159.491 249.947,159.668 196.068,157.800 194.200 C 156.609 193.009,135.988 192.557,133.250 193.662 M148.883 199.906 C 150.060 200.652,150.060 201.070,148.883 202.719 C 145.045 208.095,140.016 213.128,139.068 212.542 C 137.531 211.592,137.691 200.291,139.250 199.662 C 141.336 198.821,147.412 198.975,148.883 199.906 M152.102 214.750 C 154.385 220.714,152.404 227.122,146.199 233.846 C 138.704 241.967,138.000 241.844,138.000 232.413 L 138.000 224.827 144.159 218.413 C 151.303 210.973,150.753 211.227,152.102 214.750 M207.500 212.877 L 204.500 213.518 204.215 231.509 C 203.886 252.332,204.152 254.261,207.285 253.815 C 209.194 253.544,209.569 252.734,210.000 247.958 C 210.448 242.988,211.065 241.765,215.973 236.123 C 225.469 225.207,225.839 225.455,226.253 242.988 C 226.503 253.606,228.311 257.272,231.115 252.848 C 232.795 250.197,232.186 215.329,230.429 213.571 C 228.784 211.926,214.042 211.480,207.500 212.877 M219.775 220.044 C 220.234 222.471,213.686 229.477,211.679 228.707 C 209.059 227.702,209.445 221.506,212.250 219.524 C 214.968 217.604,219.371 217.908,219.775 220.044 M137.196 262.735 C 132.576 263.149,130.939 265.017,133.011 267.513 C 135.832 270.913,267.500 268.952,267.500 265.510 C 267.500 264.108,266.614 263.330,264.500 262.878 C 261.342 262.203,144.604 262.071,137.196 262.735 " stroke="none" fill="#000000" fill-rule="evenodd"></path></g></svg>