<svg id="svg" version="1.1" xmlns="http://www.w3.org/2000/svg" xmlns:xlink="http://www.w3.org/1999/xlink" width="400" height="407.54716981132077" viewBox="0, 0, 400,407.54716981132077"><g id="svgg"><path id="path0" d="M194.800 9.805 C 193.370 10.096,190.817 10.979,189.126 11.767 C 187.436 12.555,185.852 13.200,185.607 13.200 C 183.874 13.200,176.828 17.224,175.218 19.133 C 174.261 20.267,172.471 21.942,171.239 22.855 C 168.498 24.887,168.013 25.459,166.040 29.000 C 165.181 30.540,163.589 33.002,162.501 34.471 C 159.979 37.878,158.981 40.225,157.987 45.091 C 157.054 49.661,156.578 50.414,153.157 52.735 C 151.751 53.689,149.790 55.254,148.800 56.212 C 147.080 57.878,145.617 58.595,139.058 60.989 C 137.990 61.379,136.242 62.474,135.175 63.423 C 134.107 64.371,132.371 65.633,131.317 66.228 C 127.569 68.343,124.981 70.162,122.869 72.167 C 121.692 73.285,119.529 74.933,118.064 75.830 C 116.362 76.871,114.793 78.257,113.719 79.667 C 112.795 80.881,111.048 82.623,109.837 83.537 C 108.337 84.670,107.131 86.063,106.051 87.913 C 105.179 89.406,103.296 91.932,101.867 93.526 C 100.080 95.518,98.680 97.639,97.386 100.312 C 96.352 102.450,94.923 104.920,94.212 105.800 C 92.140 108.362,91.330 110.415,88.213 121.000 L 87.152 124.600 88.876 127.780 C 91.350 132.343,93.559 134.556,95.283 134.198 C 100.650 133.083,104.452 129.632,106.404 124.104 C 106.900 122.700,108.354 119.972,109.637 118.041 C 110.920 116.110,112.516 113.111,113.184 111.376 C 114.173 108.807,114.874 107.737,116.958 105.611 C 118.365 104.175,119.823 102.390,120.198 101.644 C 121.102 99.843,129.853 91.154,132.073 89.854 C 133.036 89.289,134.707 87.805,135.785 86.555 C 137.230 84.882,138.427 83.975,140.328 83.113 C 141.747 82.470,143.829 81.074,144.954 80.011 C 146.977 78.101,147.042 78.075,150.775 77.623 L 154.550 77.165 155.614 78.283 C 156.486 79.198,156.870 80.350,157.740 84.667 C 159.117 91.496,160.110 94.018,162.420 96.549 C 163.449 97.677,164.873 99.754,165.585 101.165 C 167.259 104.488,174.438 111.781,177.852 113.628 C 179.143 114.326,181.208 115.833,182.443 116.975 C 188.272 122.372,211.287 122.309,217.370 116.879 C 218.707 115.686,221.005 114.103,222.478 113.361 C 224.125 112.531,225.588 111.440,226.278 110.527 C 227.449 108.978,228.754 107.636,231.573 105.083 C 232.591 104.161,233.695 102.571,234.387 101.028 C 235.014 99.632,236.432 97.490,237.538 96.268 C 239.784 93.788,240.790 91.167,242.383 83.637 C 243.279 79.404,243.949 77.859,245.077 77.426 C 246.134 77.020,252.146 79.085,253.837 80.435 C 254.697 81.121,256.840 82.405,258.600 83.287 C 260.554 84.267,262.463 85.597,263.503 86.704 C 264.440 87.702,266.326 89.256,267.695 90.159 C 269.142 91.112,270.922 92.776,271.944 94.131 C 272.912 95.413,274.590 97.123,275.673 97.931 C 276.757 98.739,278.201 100.300,278.883 101.400 C 279.564 102.500,281.317 104.570,282.777 106.000 C 285.300 108.471,285.500 108.808,286.816 112.800 C 287.577 115.110,288.751 117.810,289.425 118.800 C 290.099 119.790,291.121 121.282,291.698 122.116 C 292.909 123.868,294.622 130.896,294.983 135.600 C 295.110 137.250,295.771 142.239,296.450 146.686 L 297.687 154.772 296.835 161.286 C 296.367 164.869,295.543 172.390,295.004 178.000 C 293.927 189.207,293.240 193.712,292.014 197.618 C 290.802 201.481,290.910 201.428,287.975 199.594 C 286.559 198.709,284.825 197.690,284.122 197.329 C 282.597 196.546,281.740 194.731,280.048 188.705 C 278.603 183.559,278.030 182.407,275.961 180.491 C 275.076 179.671,273.614 177.750,272.713 176.222 C 271.811 174.694,270.014 172.305,268.719 170.913 C 267.424 169.521,265.225 166.631,263.831 164.491 C 262.280 162.110,260.795 160.310,260.005 159.852 C 259.295 159.440,257.217 157.640,255.387 155.852 C 253.021 153.540,250.925 151.964,248.135 150.400 C 245.977 149.190,243.333 147.423,242.261 146.472 C 239.997 144.467,239.311 144.141,233.400 142.268 C 230.980 141.501,227.608 140.072,225.906 139.092 C 215.424 133.054,158.690 132.992,140.000 138.998 C 134.953 140.620,132.166 141.214,123.871 142.439 C 115.416 143.687,111.396 144.796,107.425 146.976 C 106.091 147.709,102.197 149.233,98.772 150.363 C 93.330 152.159,92.260 152.658,90.298 154.317 C 88.756 155.621,86.697 156.773,83.726 157.992 C 80.261 159.415,78.923 160.212,77.000 161.997 C 75.680 163.222,73.384 164.904,71.897 165.734 C 69.995 166.795,68.707 167.887,67.553 169.416 C 66.651 170.611,65.257 171.980,64.456 172.458 C 62.335 173.724,60.855 175.161,59.573 177.200 C 58.950 178.190,57.499 179.720,56.350 180.600 C 54.884 181.722,53.821 183.011,52.792 184.912 C 51.984 186.403,50.340 188.674,49.137 189.957 C 47.294 191.924,46.644 193.062,44.995 197.212 C 43.785 200.257,42.365 203.031,41.271 204.487 C 39.361 207.028,38.996 208.188,36.394 220.000 C 35.691 223.190,34.576 228.140,33.915 231.000 C 31.953 239.494,31.332 255.557,32.576 265.600 C 33.562 273.551,33.523 275.155,32.300 277.000 C 31.716 277.880,30.830 279.680,30.330 281.000 C 29.639 282.823,28.724 284.112,26.523 286.363 C 23.661 289.288,23.604 289.389,21.964 294.363 C 21.051 297.133,19.610 300.673,18.763 302.229 C 15.089 308.975,15.025 324.336,18.646 330.072 C 19.240 331.014,20.317 333.288,21.038 335.126 C 22.611 339.133,25.231 343.278,27.083 344.690 C 27.825 345.256,29.527 346.997,30.865 348.560 C 33.618 351.774,35.919 353.301,40.809 355.162 C 42.674 355.871,45.370 357.237,46.800 358.195 C 51.319 361.225,60.432 362.138,68.800 360.400 C 70.890 359.966,74.091 359.608,75.913 359.605 L 79.227 359.600 83.313 362.048 C 85.561 363.395,88.243 365.367,89.273 366.430 C 90.363 367.554,92.371 368.977,94.073 369.830 C 95.683 370.637,97.827 372.066,98.837 373.006 C 101.013 375.029,101.914 375.521,107.288 377.615 C 109.530 378.489,112.560 380.006,114.021 380.986 C 115.727 382.131,117.738 383.054,119.639 383.566 C 127.955 385.803,143.380 388.648,150.195 389.200 L 154.590 389.557 158.096 387.978 C 160.024 387.110,161.780 386.400,161.999 386.400 C 162.623 386.400,165.496 383.662,166.390 382.216 C 167.134 381.013,167.164 380.644,166.774 377.555 C 165.790 369.765,165.057 369.393,149.573 368.825 C 138.616 368.423,135.069 367.823,129.661 365.457 C 127.977 364.721,123.944 363.270,120.699 362.232 C 115.577 360.595,114.424 360.063,111.969 358.204 C 110.414 357.026,107.400 355.307,105.271 354.386 C 99.397 351.844,99.109 351.461,99.447 346.650 L 99.722 342.743 101.311 341.471 C 104.537 338.890,106.476 337.013,107.039 335.925 C 107.356 335.311,108.419 333.905,109.400 332.800 C 111.732 330.174,112.055 329.504,114.565 322.068 C 115.734 318.606,116.982 315.207,117.340 314.516 C 119.848 309.666,119.791 298.906,117.232 293.940 C 116.149 291.840,114.783 288.519,114.195 286.561 C 112.569 281.145,112.491 280.999,109.858 278.494 C 108.506 277.206,106.770 275.270,106.000 274.191 C 105.230 273.112,103.825 271.682,102.878 271.014 C 101.931 270.346,100.101 268.867,98.811 267.728 C 94.913 264.282,89.693 262.476,80.600 261.430 C 71.867 260.424,70.742 260.523,58.891 263.337 L 56.382 263.933 55.091 262.867 C 52.133 260.422,52.323 261.536,52.582 248.200 C 52.883 232.691,53.595 227.574,56.280 221.628 C 56.833 220.403,58.259 216.618,59.450 213.219 C 61.846 206.375,62.189 205.715,64.558 203.384 C 65.461 202.495,66.990 200.202,67.955 198.289 C 69.790 194.655,72.137 191.925,76.611 188.223 C 77.925 187.136,80.080 185.223,81.400 183.971 C 82.720 182.719,85.088 180.859,86.661 179.837 C 88.235 178.815,89.625 177.713,89.749 177.388 C 90.167 176.299,93.682 174.437,97.642 173.206 C 100.249 172.396,102.434 171.395,104.139 170.227 C 107.880 167.666,108.400 167.449,115.099 165.651 C 118.454 164.751,122.054 163.583,123.099 163.057 C 128.920 160.124,131.960 159.556,134.088 161.001 L 135.562 162.003 133.908 165.501 C 132.999 167.426,131.503 169.900,130.584 171.000 C 129.666 172.100,128.231 174.080,127.397 175.400 C 126.562 176.720,125.113 178.629,124.177 179.643 C 122.231 181.750,121.272 183.506,120.050 187.200 C 119.578 188.630,118.562 190.880,117.794 192.200 C 111.031 203.820,108.750 227.236,112.242 249.194 C 113.850 259.308,114.692 262.069,117.794 267.400 C 118.562 268.720,119.667 271.240,120.250 273.000 C 121.636 277.181,122.583 279.023,124.431 281.126 C 125.813 282.700,127.061 285.277,128.981 290.526 C 129.369 291.585,130.531 293.417,131.563 294.597 C 132.655 295.845,134.405 298.719,135.749 301.471 C 137.215 304.474,138.689 306.857,139.789 308.000 C 140.742 308.990,142.154 311.060,142.928 312.600 C 143.784 314.306,145.204 316.253,146.561 317.581 C 147.787 318.781,149.448 320.888,150.252 322.264 C 151.057 323.640,152.954 326.153,154.469 327.849 C 155.984 329.545,157.873 332.028,158.669 333.366 C 159.464 334.705,161.228 336.970,162.588 338.400 C 163.949 339.830,165.653 341.990,166.374 343.200 C 167.096 344.410,168.648 346.167,169.824 347.103 C 171.000 348.040,172.601 349.771,173.383 350.948 C 174.234 352.231,175.679 353.670,176.983 354.536 C 178.182 355.332,179.867 356.932,180.728 358.092 C 182.563 360.563,183.161 361.100,185.681 362.538 C 186.716 363.128,188.327 364.519,189.262 365.628 C 190.451 367.038,191.917 368.141,194.139 369.297 C 195.887 370.206,198.505 371.924,199.958 373.116 C 203.167 375.747,203.531 375.939,208.732 377.742 C 211.320 378.638,213.937 379.899,215.732 381.114 C 220.134 384.093,223.057 384.970,233.945 386.580 C 236.225 386.917,239.915 387.658,242.145 388.226 C 248.710 389.899,253.865 389.769,263.200 387.693 C 282.140 383.482,282.787 383.293,286.107 381.020 C 287.544 380.036,290.994 378.342,293.775 377.256 C 297.792 375.687,299.228 374.909,300.768 373.469 C 301.833 372.472,304.194 370.908,306.014 369.993 C 307.834 369.078,310.244 367.458,311.370 366.393 C 317.723 360.385,322.401 359.103,331.768 360.806 C 340.956 362.476,349.151 361.369,353.786 357.832 C 354.713 357.124,356.535 356.123,357.835 355.606 C 364.401 352.998,365.043 352.504,372.163 344.600 C 375.867 340.488,378.800 335.829,378.800 334.056 C 378.800 333.744,379.524 331.980,380.408 330.135 C 382.682 325.393,383.643 321.077,383.377 316.800 C 382.859 308.480,382.346 305.532,380.979 303.012 C 380.259 301.686,378.920 298.196,378.005 295.259 C 376.345 289.935,376.330 289.908,373.451 286.828 C 371.540 284.785,370.316 283.073,369.834 281.770 C 369.434 280.686,368.519 278.707,367.801 277.372 L 366.494 274.944 367.293 267.172 C 368.829 252.221,368.089 236.280,365.428 227.036 C 364.916 225.256,363.916 221.370,363.207 218.400 C 362.498 215.430,361.579 211.579,361.164 209.843 C 360.591 207.446,360.004 206.148,358.725 204.454 C 357.799 203.227,356.562 201.048,355.977 199.612 C 354.108 195.022,352.384 191.949,350.612 190.049 C 349.663 189.032,348.235 187.087,347.439 185.726 C 345.194 181.887,344.659 181.600,339.747 181.600 L 335.602 181.600 334.071 182.983 C 332.684 184.237,332.456 184.740,331.656 188.323 L 330.773 192.278 331.836 195.239 C 333.196 199.029,334.081 200.764,335.286 202.005 C 337.451 204.235,338.417 206.027,339.922 210.611 C 340.791 213.257,342.234 216.879,343.129 218.659 C 346.608 225.577,347.737 235.082,347.621 256.469 C 347.586 262.834,345.577 264.507,339.512 263.221 C 330.998 261.415,324.460 261.397,315.979 263.157 C 309.938 264.410,307.507 265.531,303.718 268.813 C 302.792 269.614,300.992 270.826,299.718 271.506 C 297.086 272.911,295.799 274.179,294.256 276.888 C 293.665 277.926,292.188 279.848,290.974 281.159 C 286.539 285.949,282.852 300.350,284.003 308.389 C 286.080 322.891,287.370 327.366,290.573 331.178 C 291.395 332.156,292.586 333.983,293.219 335.237 C 293.911 336.608,295.117 338.133,296.240 339.059 C 297.269 339.907,298.715 341.167,299.455 341.860 L 300.800 343.120 300.800 346.983 C 300.800 350.881,299.696 353.179,297.811 353.206 C 296.893 353.219,289.268 357.300,287.462 358.745 C 285.966 359.942,284.188 360.735,279.662 362.222 C 276.438 363.281,272.640 364.762,271.221 365.513 C 261.732 370.534,237.439 370.369,228.294 365.221 C 227.142 364.573,223.610 363.148,220.445 362.055 C 215.080 360.201,214.539 359.919,212.445 357.885 C 211.210 356.684,209.054 355.103,207.654 354.371 C 206.054 353.534,204.427 352.251,203.278 350.920 C 202.272 349.755,200.261 348.095,198.809 347.233 C 194.436 344.635,178.631 328.731,178.989 327.288 C 179.675 324.523,182.223 323.365,186.766 323.754 C 198.756 324.782,199.592 324.791,208.765 323.999 C 221.609 322.890,222.578 322.672,226.509 320.019 C 227.472 319.370,230.777 318.020,233.853 317.020 C 238.590 315.480,239.766 314.929,241.541 313.413 C 242.694 312.429,244.853 310.985,246.339 310.205 C 247.824 309.424,250.201 307.699,251.620 306.373 C 253.039 305.046,255.787 302.811,257.727 301.405 C 260.605 299.321,261.812 298.090,264.280 294.725 C 265.945 292.456,268.164 289.685,269.212 288.567 C 270.261 287.449,271.608 285.559,272.206 284.367 C 272.805 283.175,274.424 281.022,275.806 279.581 C 277.459 277.858,278.737 276.039,279.541 274.265 C 280.214 272.782,281.827 270.158,283.126 268.433 C 284.761 266.265,285.874 264.234,286.738 261.845 C 288.225 257.737,289.222 255.713,290.527 254.153 C 292.026 252.363,293.357 249.412,294.926 244.400 C 295.718 241.870,296.911 238.943,297.578 237.895 C 299.762 234.460,300.385 232.900,302.421 225.765 C 303.555 221.792,305.114 217.362,305.994 215.613 C 307.989 211.644,308.873 208.735,310.182 201.825 C 310.762 198.759,311.959 194.032,312.842 191.320 C 318.778 173.075,318.648 137.023,312.599 123.600 C 311.855 121.950,310.590 118.174,309.787 115.210 C 308.099 108.978,307.850 108.427,305.440 105.603 C 304.453 104.447,303.183 102.347,302.619 100.936 C 301.289 97.616,299.941 95.481,297.585 92.966 C 296.537 91.847,294.864 89.660,293.868 88.106 C 292.813 86.460,291.251 84.679,290.128 83.841 C 289.068 83.049,287.378 81.366,286.374 80.101 C 285.370 78.835,283.329 76.969,281.839 75.953 C 280.349 74.937,278.111 73.115,276.865 71.904 C 274.745 69.843,270.788 67.231,268.857 66.618 C 268.389 66.470,266.787 65.229,265.297 63.861 C 263.806 62.493,262.050 61.163,261.393 60.906 C 260.737 60.648,258.707 59.872,256.882 59.183 C 254.521 58.290,252.906 57.349,251.282 55.920 C 250.027 54.815,248.058 53.376,246.907 52.721 C 243.697 50.896,243.015 49.830,241.831 44.783 C 240.675 39.853,240.191 38.716,238.008 35.800 C 237.184 34.700,235.465 32.031,234.187 29.868 C 232.414 26.869,231.190 25.349,229.026 23.461 C 227.466 22.100,225.418 20.151,224.475 19.128 C 222.626 17.122,218.357 14.704,214.000 13.194 C 212.570 12.699,210.527 11.855,209.460 11.320 C 205.615 9.390,199.792 8.788,194.800 9.805 M204.496 30.410 C 208.230 30.914,210.430 32.052,211.846 34.215 C 212.218 34.782,213.306 35.785,214.265 36.445 C 216.907 38.263,217.961 39.531,219.398 42.624 C 220.120 44.177,221.434 46.284,222.319 47.307 C 225.538 51.026,226.919 63.280,225.410 74.727 C 224.801 79.341,224.433 80.387,222.215 83.800 C 221.501 84.900,219.906 87.531,218.671 89.647 C 215.553 94.991,211.242 98.371,205.760 99.769 C 204.417 100.111,202.638 100.676,201.804 101.024 C 199.232 102.099,192.147 99.834,185.990 95.968 C 184.569 95.076,183.623 93.916,181.590 90.576 C 180.165 88.235,178.438 85.475,177.751 84.443 C 174.586 79.689,173.784 75.639,173.825 64.600 C 173.860 55.314,174.928 50.056,177.396 47.026 C 178.311 45.902,179.743 43.683,180.578 42.095 C 181.455 40.425,182.761 38.656,183.671 37.903 C 184.537 37.186,186.361 35.551,187.723 34.270 C 191.044 31.145,196.778 29.135,200.400 29.824 C 200.730 29.886,202.573 30.150,204.496 30.410 M205.600 154.977 C 219.442 157.313,227.742 159.777,231.438 162.646 C 232.722 163.644,235.225 165.153,236.998 165.999 C 239.422 167.156,240.645 168.039,241.924 169.556 C 242.860 170.666,244.620 172.234,245.834 173.040 C 247.165 173.924,248.649 175.398,249.571 176.753 C 250.412 177.989,252.018 179.771,253.139 180.714 C 254.637 181.974,255.547 183.209,256.576 185.377 C 257.346 186.998,258.836 189.310,259.888 190.515 C 261.970 192.899,263.400 196.117,264.783 201.532 C 265.623 204.824,266.613 207.644,268.527 212.200 C 271.133 218.401,271.299 240.469,268.788 246.800 C 268.395 247.790,267.544 249.860,266.896 251.400 C 266.248 252.940,265.249 256.023,264.676 258.250 C 263.353 263.392,262.148 266.084,260.043 268.600 C 259.122 269.700,257.632 272.088,256.732 273.906 C 255.475 276.444,254.557 277.678,252.784 279.214 C 251.513 280.315,249.913 282.089,249.227 283.157 C 248.478 284.325,247.070 285.704,245.695 286.617 C 244.438 287.452,242.237 289.324,240.804 290.778 C 238.875 292.735,237.659 293.608,236.111 294.146 C 234.963 294.545,232.736 295.776,231.163 296.880 C 225.613 300.778,219.688 302.406,204.609 304.175 C 194.797 305.326,175.110 301.433,169.644 297.260 C 168.678 296.523,166.207 295.112,164.153 294.126 C 161.222 292.719,160.058 291.902,158.739 290.328 C 157.816 289.224,156.326 287.867,155.430 287.313 C 153.117 285.880,151.709 284.498,150.227 282.200 C 149.517 281.100,148.218 279.703,147.340 279.095 C 145.457 277.792,144.423 276.474,143.310 273.957 C 142.862 272.943,141.568 271.089,140.434 269.838 C 138.099 267.259,136.867 264.733,135.180 259.062 C 134.536 256.896,133.268 253.481,132.364 251.472 C 127.726 241.172,127.800 218.704,132.506 208.194 C 133.490 205.997,134.606 202.940,134.986 201.400 C 136.263 196.228,137.989 192.348,139.988 190.148 C 141.014 189.020,142.420 186.910,143.113 185.459 C 144.332 182.907,146.165 180.740,151.963 175.000 C 157.919 169.103,160.654 166.859,163.600 165.452 C 165.250 164.665,167.382 163.328,168.337 162.482 C 170.863 160.246,174.403 159.049,185.086 156.819 C 198.009 154.123,199.659 153.974,205.600 154.977 M189.965 177.145 C 188.774 177.995,187.054 179.069,186.143 179.531 C 184.346 180.443,181.678 183.286,181.394 184.589 C 179.506 193.267,179.072 194.773,177.560 197.882 C 176.336 200.400,175.407 203.328,174.110 208.764 C 173.134 212.854,171.945 217.640,171.468 219.400 L 170.600 222.600 171.600 226.469 C 173.240 232.813,175.211 234.238,181.222 233.426 C 185.872 232.798,186.491 232.550,189.215 230.224 C 191.895 227.937,192.224 227.853,196.585 228.332 L 200.098 228.718 202.671 231.368 C 204.086 232.825,205.949 234.463,206.812 235.007 C 212.336 238.495,211.643 249.623,205.600 254.482 C 201.082 258.115,200.068 258.616,196.149 259.152 L 192.497 259.652 190.549 258.459 C 180.354 252.218,170.975 255.092,171.546 264.283 L 171.800 268.366 173.600 270.215 C 174.590 271.232,176.210 272.533,177.200 273.106 C 178.190 273.679,179.667 274.737,180.482 275.457 C 186.448 280.725,204.464 280.795,210.231 275.572 C 211.412 274.503,213.148 273.241,214.089 272.768 C 216.843 271.385,218.290 270.117,220.011 267.583 C 220.900 266.275,222.158 264.811,222.807 264.332 C 226.424 261.657,229.451 249.987,228.702 241.600 C 227.611 229.389,224.836 224.439,213.839 215.088 C 210.121 211.926,208.805 211.343,203.814 210.648 C 200.425 210.175,199.277 209.849,198.454 209.123 C 196.826 207.688,196.813 207.641,196.806 203.347 L 196.800 199.293 198.354 197.889 C 200.081 196.329,205.911 195.577,211.929 196.139 C 221.733 197.055,225.982 194.980,227.622 188.480 L 228.560 184.760 227.780 183.296 C 224.364 176.883,220.358 175.588,203.965 175.595 L 192.130 175.600 189.965 177.145 M81.257 280.351 C 84.125 281.338,86.516 282.574,87.227 283.439 C 87.542 283.822,89.467 285.465,91.504 287.089 C 94.204 289.241,95.463 290.551,96.148 291.921 C 100.752 301.116,99.419 315.372,93.319 322.170 C 92.347 323.254,91.083 324.964,90.510 325.970 C 89.015 328.598,87.744 329.850,85.010 331.387 C 83.684 332.132,81.685 333.526,80.566 334.486 C 72.685 341.248,50.000 342.113,45.632 335.818 C 45.320 335.368,43.595 333.560,41.797 331.800 L 38.530 328.600 37.420 324.326 C 34.667 313.725,36.712 303.686,43.045 296.716 C 44.502 295.112,46.348 292.934,47.147 291.875 C 48.708 289.808,52.073 287.480,56.594 285.341 C 58.137 284.611,60.390 283.293,61.600 282.413 C 65.204 279.790,76.257 278.630,81.257 280.351 M333.268 281.238 C 335.394 281.568,336.678 282.055,338.474 283.216 C 339.785 284.064,341.519 284.971,342.329 285.234 C 344.014 285.780,348.495 288.011,350.051 289.079 C 351.698 290.209,360.009 300.777,360.999 303.000 C 364.662 311.224,363.063 331.200,358.742 331.200 C 358.512 331.200,356.766 332.781,354.862 334.713 L 351.400 338.226 347.200 339.117 C 336.342 341.420,324.548 339.457,318.992 334.422 C 317.634 333.191,315.463 331.558,314.167 330.792 C 312.160 329.606,311.585 328.985,310.286 326.600 C 309.446 325.060,307.801 322.360,306.630 320.600 C 301.483 312.866,300.811 299.955,305.274 294.563 C 306.168 293.483,307.491 291.676,308.214 290.547 C 309.726 288.189,311.410 286.789,314.222 285.557 C 315.310 285.080,317.191 284.000,318.402 283.156 C 321.573 280.946,326.932 280.255,333.268 281.238 " stroke="none" fill="#ffffff" fill-rule="evenodd"></path><path id="path1" d="M0.000 203.600 L 0.000 407.200 200.000 407.200 L 400.000 407.200 400.000 203.600 L 400.000 0.000 200.000 0.000 L 0.000 0.000 0.000 203.600 M204.525 9.773 C 206.173 10.088,208.393 10.784,209.460 11.320 C 210.527 11.855,212.570 12.699,214.000 13.194 C 218.357 14.704,222.626 17.122,224.475 19.128 C 225.418 20.151,227.466 22.100,229.026 23.461 C 231.190 25.349,232.414 26.869,234.187 29.868 C 235.465 32.031,237.184 34.700,238.008 35.800 C 240.191 38.716,240.675 39.853,241.831 44.783 C 243.015 49.830,243.697 50.896,246.907 52.721 C 248.058 53.376,250.027 54.815,251.282 55.920 C 252.906 57.349,254.521 58.290,256.882 59.183 C 258.707 59.872,260.737 60.648,261.393 60.906 C 262.050 61.163,263.806 62.493,265.297 63.861 C 266.787 65.229,268.389 66.470,268.857 66.618 C 270.788 67.231,274.745 69.843,276.865 71.904 C 278.111 73.115,280.349 74.937,281.839 75.953 C 283.329 76.969,285.370 78.835,286.374 80.101 C 287.378 81.366,289.068 83.049,290.128 83.841 C 291.251 84.679,292.813 86.460,293.868 88.106 C 294.864 89.660,296.537 91.847,297.585 92.966 C 299.941 95.481,301.289 97.616,302.619 100.936 C 303.183 102.347,304.453 104.447,305.440 105.603 C 307.850 108.427,308.099 108.978,309.787 115.210 C 310.590 118.174,311.855 121.950,312.599 123.600 C 318.648 137.023,318.778 173.075,312.842 191.320 C 311.959 194.032,310.762 198.759,310.182 201.825 C 308.873 208.735,307.989 211.644,305.994 215.613 C 305.114 217.362,303.555 221.792,302.421 225.765 C 300.385 232.900,299.762 234.460,297.578 237.895 C 296.911 238.943,295.718 241.870,294.926 244.400 C 293.357 249.412,292.026 252.363,290.527 254.153 C 289.222 255.713,288.225 257.737,286.738 261.845 C 285.874 264.234,284.761 266.265,283.126 268.433 C 281.827 270.158,280.214 272.782,279.541 274.265 C 278.737 276.039,277.459 277.858,275.806 279.581 C 274.424 281.022,272.805 283.175,272.206 284.367 C 271.608 285.559,270.261 287.449,269.212 288.567 C 268.164 289.685,265.945 292.456,264.280 294.725 C 261.812 298.090,260.605 299.321,257.727 301.405 C 255.787 302.811,253.039 305.046,251.620 306.373 C 250.201 307.699,247.824 309.424,246.339 310.205 C 244.853 310.985,242.694 312.429,241.541 313.413 C 239.766 314.929,238.590 315.480,233.853 317.020 C 230.777 318.020,227.472 319.370,226.509 320.019 C 222.578 322.672,221.609 322.890,208.765 323.999 C 199.592 324.791,198.756 324.782,186.766 323.754 C 182.223 323.365,179.675 324.523,178.989 327.288 C 178.631 328.731,194.436 344.635,198.809 347.233 C 200.261 348.095,202.272 349.755,203.278 350.920 C 204.427 352.251,206.054 353.534,207.654 354.371 C 209.054 355.103,211.210 356.684,212.445 357.885 C 214.539 359.919,215.080 360.201,220.445 362.055 C 223.610 363.148,227.142 364.573,228.294 365.221 C 237.439 370.369,261.732 370.534,271.221 365.513 C 272.640 364.762,276.438 363.281,279.662 362.222 C 284.188 360.735,285.966 359.942,287.462 358.745 C 289.268 357.300,296.893 353.219,297.811 353.206 C 299.696 353.179,300.800 350.881,300.800 346.983 L 300.800 343.120 299.455 341.860 C 298.715 341.167,297.269 339.907,296.240 339.059 C 295.117 338.133,293.911 336.608,293.219 335.237 C 292.586 333.983,291.395 332.156,290.573 331.178 C 287.370 327.366,286.080 322.891,284.003 308.389 C 282.852 300.350,286.539 285.949,290.974 281.159 C 292.188 279.848,293.665 277.926,294.256 276.888 C 295.799 274.179,297.086 272.911,299.718 271.506 C 300.992 270.826,302.792 269.614,303.718 268.813 C 311.199 262.334,325.097 260.163,339.512 263.221 C 345.577 264.507,347.586 262.834,347.621 256.469 C 347.737 235.082,346.608 225.577,343.129 218.659 C 342.234 216.879,340.791 213.257,339.922 210.611 C 338.417 206.027,337.451 204.235,335.286 202.005 C 334.081 200.764,333.196 199.029,331.836 195.239 L 330.773 192.278 331.656 188.323 C 332.456 184.740,332.684 184.237,334.071 182.983 L 335.602 181.600 339.747 181.600 C 344.659 181.600,345.194 181.887,347.439 185.726 C 348.235 187.087,349.663 189.032,350.612 190.049 C 352.384 191.949,354.108 195.022,355.977 199.612 C 356.562 201.048,357.799 203.227,358.725 204.454 C 360.004 206.148,360.591 207.446,361.164 209.843 C 361.579 211.579,362.498 215.430,363.207 218.400 C 363.916 221.370,364.916 225.256,365.428 227.036 C 368.089 236.280,368.829 252.221,367.293 267.172 L 366.494 274.944 367.801 277.372 C 368.519 278.707,369.434 280.686,369.834 281.770 C 370.316 283.073,371.540 284.785,373.451 286.828 C 376.330 289.908,376.345 289.935,378.005 295.259 C 378.920 298.196,380.259 301.686,380.979 303.012 C 382.346 305.532,382.859 308.480,383.377 316.800 C 383.643 321.077,382.682 325.393,380.408 330.135 C 379.524 331.980,378.800 333.744,378.800 334.056 C 378.800 335.829,375.867 340.488,372.163 344.600 C 365.043 352.504,364.401 352.998,357.835 355.606 C 356.535 356.123,354.713 357.124,353.786 357.832 C 349.151 361.369,340.956 362.476,331.768 360.806 C 322.401 359.103,317.723 360.385,311.370 366.393 C 310.244 367.458,307.834 369.078,306.014 369.993 C 304.194 370.908,301.833 372.472,300.768 373.469 C 299.228 374.909,297.792 375.687,293.775 377.256 C 290.994 378.342,287.544 380.036,286.107 381.020 C 282.787 383.293,282.140 383.482,263.200 387.693 C 253.865 389.769,248.710 389.899,242.145 388.226 C 239.915 387.658,236.225 386.917,233.945 386.580 C 223.057 384.970,220.134 384.093,215.732 381.114 C 213.937 379.899,211.320 378.638,208.732 377.742 C 203.531 375.939,203.167 375.747,199.958 373.116 C 198.505 371.924,195.887 370.206,194.139 369.297 C 191.917 368.141,190.451 367.038,189.262 365.628 C 188.327 364.519,186.716 363.128,185.681 362.538 C 183.161 361.100,182.563 360.563,180.728 358.092 C 179.867 356.932,178.182 355.332,176.983 354.536 C 175.679 353.670,174.234 352.231,173.383 350.948 C 172.601 349.771,171.000 348.040,169.824 347.103 C 168.648 346.167,167.096 344.410,166.374 343.200 C 165.653 341.990,163.949 339.830,162.588 338.400 C 161.228 336.970,159.464 334.705,158.669 333.366 C 157.873 332.028,155.984 329.545,154.469 327.849 C 152.954 326.153,151.057 323.640,150.252 322.264 C 149.448 320.888,147.787 318.781,146.561 317.581 C 145.204 316.253,143.784 314.306,142.928 312.600 C 142.154 311.060,140.742 308.990,139.789 308.000 C 138.689 306.857,137.215 304.474,135.749 301.471 C 134.405 298.719,132.655 295.845,131.563 294.597 C 130.531 293.417,129.369 291.585,128.981 290.526 C 127.061 285.277,125.813 282.700,124.431 281.126 C 122.583 279.023,121.636 277.181,120.250 273.000 C 119.667 271.240,118.562 268.720,117.794 267.400 C 110.162 254.286,108.316 224.180,113.783 202.000 C 114.783 197.946,115.570 196.021,117.794 192.200 C 118.562 190.880,119.578 188.630,120.050 187.200 C 121.272 183.506,122.231 181.750,124.177 179.643 C 125.113 178.629,126.562 176.720,127.397 175.400 C 128.231 174.080,129.666 172.100,130.584 171.000 C 131.503 169.900,132.999 167.426,133.908 165.501 L 135.562 162.003 134.088 161.001 C 131.960 159.556,128.920 160.124,123.099 163.057 C 122.054 163.583,118.454 164.751,115.099 165.651 C 108.400 167.449,107.880 167.666,104.139 170.227 C 102.434 171.395,100.249 172.396,97.642 173.206 C 93.682 174.437,90.167 176.299,89.749 177.388 C 89.625 177.713,88.235 178.815,86.661 179.837 C 85.088 180.859,82.720 182.719,81.400 183.971 C 80.080 185.223,77.925 187.136,76.611 188.223 C 72.137 191.925,69.790 194.655,67.955 198.289 C 66.990 200.202,65.461 202.495,64.558 203.384 C 62.189 205.715,61.846 206.375,59.450 213.219 C 58.259 216.618,56.833 220.403,56.280 221.628 C 53.595 227.574,52.883 232.691,52.582 248.200 C 52.323 261.536,52.133 260.422,55.091 262.867 L 56.382 263.933 58.891 263.337 C 70.742 260.523,71.867 260.424,80.600 261.430 C 89.693 262.476,94.913 264.282,98.811 267.728 C 100.101 268.867,101.931 270.346,102.878 271.014 C 103.825 271.682,105.230 273.112,106.000 274.191 C 106.770 275.270,108.506 277.206,109.858 278.494 C 112.491 280.999,112.569 281.145,114.195 286.561 C 114.783 288.519,116.149 291.840,117.232 293.940 C 119.791 298.906,119.848 309.666,117.340 314.516 C 116.982 315.207,115.734 318.606,114.565 322.068 C 112.055 329.504,111.732 330.174,109.400 332.800 C 108.419 333.905,107.356 335.311,107.039 335.925 C 106.476 337.013,104.537 338.890,101.311 341.471 L 99.722 342.743 99.447 346.650 C 99.109 351.461,99.397 351.844,105.271 354.386 C 107.400 355.307,110.414 357.026,111.969 358.204 C 114.424 360.063,115.577 360.595,120.699 362.232 C 123.944 363.270,127.977 364.721,129.661 365.457 C 135.069 367.823,138.616 368.423,149.573 368.825 C 165.057 369.393,165.790 369.765,166.774 377.555 C 167.164 380.644,167.134 381.013,166.390 382.216 C 165.496 383.662,162.623 386.400,161.999 386.400 C 161.780 386.400,160.024 387.110,158.096 387.978 L 154.590 389.557 150.195 389.200 C 143.380 388.648,127.955 385.803,119.639 383.566 C 117.738 383.054,115.727 382.131,114.021 380.986 C 112.560 380.006,109.530 378.489,107.288 377.615 C 101.914 375.521,101.013 375.029,98.837 373.006 C 97.827 372.066,95.683 370.637,94.073 369.830 C 92.371 368.977,90.363 367.554,89.273 366.430 C 88.243 365.367,85.561 363.395,83.313 362.048 L 79.227 359.600 75.913 359.605 C 74.091 359.608,70.890 359.966,68.800 360.400 C 60.432 362.138,51.319 361.225,46.800 358.195 C 45.370 357.237,42.674 355.871,40.809 355.162 C 35.919 353.301,33.618 351.774,30.865 348.560 C 29.527 346.997,27.825 345.256,27.083 344.690 C 25.231 343.278,22.611 339.133,21.038 335.126 C 20.317 333.288,19.240 331.014,18.646 330.072 C 15.025 324.336,15.089 308.975,18.763 302.229 C 19.610 300.673,21.051 297.133,21.964 294.363 C 23.604 289.389,23.661 289.288,26.523 286.363 C 28.724 284.112,29.639 282.823,30.330 281.000 C 30.830 279.680,31.716 277.880,32.300 277.000 C 33.523 275.155,33.562 273.551,32.576 265.600 C 31.332 255.557,31.953 239.494,33.915 231.000 C 34.576 228.140,35.691 223.190,36.394 220.000 C 38.996 208.188,39.361 207.028,41.271 204.487 C 42.365 203.031,43.785 200.257,44.995 197.212 C 46.644 193.062,47.294 191.924,49.137 189.957 C 50.340 188.674,51.984 186.403,52.792 184.912 C 53.821 183.011,54.884 181.722,56.350 180.600 C 57.499 179.720,58.950 178.190,59.573 177.200 C 60.855 175.161,62.335 173.724,64.456 172.458 C 65.257 171.980,66.651 170.611,67.553 169.416 C 68.707 167.887,69.995 166.795,71.897 165.734 C 73.384 164.904,75.680 163.222,77.000 161.997 C 78.923 160.212,80.261 159.415,83.726 157.992 C 86.697 156.773,88.756 155.621,90.298 154.317 C 92.260 152.658,93.330 152.159,98.772 150.363 C 102.197 149.233,106.091 147.709,107.425 146.976 C 111.396 144.796,115.416 143.687,123.871 142.439 C 132.166 141.214,134.953 140.620,140.000 138.998 C 158.690 132.992,215.424 133.054,225.906 139.092 C 227.608 140.072,230.980 141.501,233.400 142.268 C 239.311 144.141,239.997 144.467,242.261 146.472 C 243.333 147.423,245.977 149.190,248.135 150.400 C 250.925 151.964,253.021 153.540,255.387 155.852 C 257.217 157.640,259.295 159.440,260.005 159.852 C 260.795 160.310,262.280 162.110,263.831 164.491 C 265.225 166.631,267.424 169.521,268.719 170.913 C 270.014 172.305,271.811 174.694,272.713 176.222 C 273.614 177.750,275.076 179.671,275.961 180.491 C 278.030 182.407,278.603 183.559,280.048 188.705 C 281.740 194.731,282.597 196.546,284.122 197.329 C 284.825 197.690,286.559 198.709,287.975 199.594 C 290.910 201.428,290.802 201.481,292.014 197.618 C 293.240 193.712,293.927 189.207,295.004 178.000 C 295.543 172.390,296.367 164.869,296.835 161.286 L 297.687 154.772 296.450 146.686 C 295.771 142.239,295.110 137.250,294.983 135.600 C 294.622 130.896,292.909 123.868,291.698 122.116 C 291.121 121.282,290.099 119.790,289.425 118.800 C 288.751 117.810,287.577 115.110,286.816 112.800 C 285.500 108.808,285.300 108.471,282.777 106.000 C 281.317 104.570,279.564 102.500,278.883 101.400 C 278.201 100.300,276.757 98.739,275.673 97.931 C 274.590 97.123,272.912 95.413,271.944 94.131 C 270.922 92.776,269.142 91.112,267.695 90.159 C 266.326 89.256,264.440 87.702,263.503 86.704 C 262.463 85.597,260.554 84.267,258.600 83.287 C 256.840 82.405,254.697 81.121,253.837 80.435 C 252.146 79.085,246.134 77.020,245.077 77.426 C 243.949 77.859,243.279 79.404,242.383 83.637 C 240.790 91.167,239.784 93.788,237.538 96.268 C 236.432 97.490,235.014 99.632,234.387 101.028 C 233.695 102.571,232.591 104.161,231.573 105.083 C 228.754 107.636,227.449 108.978,226.278 110.527 C 225.588 111.440,224.125 112.531,222.478 113.361 C 221.005 114.103,218.707 115.686,217.370 116.879 C 211.287 122.309,188.272 122.372,182.443 116.975 C 181.208 115.833,179.143 114.326,177.852 113.628 C 174.438 111.781,167.259 104.488,165.585 101.165 C 164.873 99.754,163.449 97.677,162.420 96.549 C 160.110 94.018,159.117 91.496,157.740 84.667 C 156.870 80.350,156.486 79.198,155.614 78.283 L 154.550 77.165 150.775 77.623 C 147.042 78.075,146.977 78.101,144.954 80.011 C 143.829 81.074,141.747 82.470,140.328 83.113 C 138.427 83.975,137.230 84.882,135.785 86.555 C 134.707 87.805,133.036 89.289,132.073 89.854 C 129.853 91.154,121.102 99.843,120.198 101.644 C 119.823 102.390,118.365 104.175,116.958 105.611 C 114.874 107.737,114.173 108.807,113.184 111.376 C 112.516 113.111,110.920 116.110,109.637 118.041 C 108.354 119.972,106.900 122.700,106.404 124.104 C 104.452 129.632,100.650 133.083,95.283 134.198 C 93.559 134.556,91.350 132.343,88.876 127.780 L 87.152 124.600 88.213 121.000 C 91.330 110.415,92.140 108.362,94.212 105.800 C 94.923 104.920,96.352 102.450,97.386 100.312 C 98.680 97.639,100.080 95.518,101.867 93.526 C 103.296 91.932,105.179 89.406,106.051 87.913 C 107.131 86.063,108.337 84.670,109.837 83.537 C 111.048 82.623,112.795 80.881,113.719 79.667 C 114.793 78.257,116.362 76.871,118.064 75.830 C 119.529 74.933,121.692 73.285,122.869 72.167 C 124.981 70.162,127.569 68.343,131.317 66.228 C 132.371 65.633,134.107 64.371,135.175 63.423 C 136.242 62.474,137.990 61.379,139.058 60.989 C 145.617 58.595,147.080 57.878,148.800 56.212 C 149.790 55.254,151.751 53.689,153.157 52.735 C 156.578 50.414,157.054 49.661,157.987 45.091 C 158.981 40.225,159.979 37.878,162.501 34.471 C 163.589 33.002,165.181 30.540,166.040 29.000 C 168.013 25.459,168.498 24.887,171.239 22.855 C 172.471 21.942,174.261 20.267,175.218 19.133 C 176.828 17.224,183.874 13.200,185.607 13.200 C 185.852 13.200,187.436 12.555,189.126 11.767 C 194.331 9.341,199.063 8.728,204.525 9.773 M196.102 30.243 C 191.692 30.880,190.946 31.238,187.723 34.270 C 186.361 35.551,184.537 37.186,183.671 37.903 C 182.761 38.656,181.455 40.425,180.578 42.095 C 179.743 43.683,178.311 45.902,177.396 47.026 C 174.928 50.056,173.860 55.314,173.825 64.600 C 173.784 75.639,174.586 79.689,177.751 84.443 C 178.438 85.475,180.165 88.235,181.590 90.576 C 183.623 93.916,184.569 95.076,185.990 95.968 C 192.147 99.834,199.232 102.099,201.804 101.024 C 202.638 100.676,204.417 100.111,205.760 99.769 C 211.242 98.371,215.553 94.991,218.671 89.647 C 219.906 87.531,221.501 84.900,222.215 83.800 C 224.433 80.387,224.801 79.341,225.410 74.727 C 226.919 63.280,225.538 51.026,222.319 47.307 C 221.434 46.284,220.120 44.177,219.398 42.624 C 217.961 39.531,216.907 38.263,214.265 36.445 C 213.306 35.785,212.218 34.782,211.846 34.215 C 210.430 32.052,208.230 30.914,204.496 30.410 C 202.573 30.150,200.730 29.886,200.400 29.824 C 200.070 29.761,198.136 29.950,196.102 30.243 M195.800 154.677 C 185.065 156.082,171.075 160.058,168.337 162.482 C 167.382 163.328,165.250 164.665,163.600 165.452 C 160.654 166.859,157.919 169.103,151.963 175.000 C 146.165 180.740,144.332 182.907,143.113 185.459 C 142.420 186.910,141.014 189.020,139.988 190.148 C 137.989 192.348,136.263 196.228,134.986 201.400 C 134.606 202.940,133.490 205.997,132.506 208.194 C 127.800 218.704,127.726 241.172,132.364 251.472 C 133.268 253.481,134.536 256.896,135.180 259.062 C 136.867 264.733,138.099 267.259,140.434 269.838 C 141.568 271.089,142.862 272.943,143.310 273.957 C 144.423 276.474,145.457 277.792,147.340 279.095 C 148.218 279.703,149.517 281.100,150.227 282.200 C 151.709 284.498,153.117 285.880,155.430 287.313 C 156.326 287.867,157.816 289.224,158.739 290.328 C 160.058 291.902,161.222 292.719,164.153 294.126 C 166.207 295.112,168.678 296.523,169.644 297.260 C 175.110 301.433,194.797 305.326,204.609 304.175 C 219.688 302.406,225.613 300.778,231.163 296.880 C 232.736 295.776,234.963 294.545,236.111 294.146 C 237.659 293.608,238.875 292.735,240.804 290.778 C 242.237 289.324,244.438 287.452,245.695 286.617 C 247.070 285.704,248.478 284.325,249.227 283.157 C 249.913 282.089,251.513 280.315,252.784 279.214 C 254.557 277.678,255.475 276.444,256.732 273.906 C 257.632 272.088,259.122 269.700,260.043 268.600 C 262.148 266.084,263.353 263.392,264.676 258.250 C 265.249 256.023,266.248 252.940,266.896 251.400 C 267.544 249.860,268.395 247.790,268.788 246.800 C 271.299 240.469,271.133 218.401,268.527 212.200 C 266.613 207.644,265.623 204.824,264.783 201.532 C 263.400 196.117,261.970 192.899,259.888 190.515 C 258.836 189.310,257.346 186.998,256.576 185.377 C 255.547 183.209,254.637 181.974,253.139 180.714 C 252.018 179.771,250.412 177.989,249.571 176.753 C 248.649 175.398,247.165 173.924,245.834 173.040 C 244.620 172.234,242.860 170.666,241.924 169.556 C 240.645 168.039,239.422 167.156,236.998 165.999 C 235.225 165.153,232.722 163.644,231.438 162.646 C 228.311 160.218,225.206 159.086,216.400 157.165 C 204.213 154.506,200.516 154.060,195.800 154.677 M219.378 176.682 C 223.265 177.868,226.061 180.069,227.780 183.296 L 228.560 184.760 227.622 188.480 C 225.982 194.980,221.733 197.055,211.929 196.139 C 205.911 195.577,200.081 196.329,198.354 197.889 L 196.800 199.293 196.806 203.347 C 196.813 207.641,196.826 207.688,198.454 209.123 C 199.277 209.849,200.425 210.175,203.814 210.648 C 208.805 211.343,210.121 211.926,213.839 215.088 C 224.836 224.439,227.611 229.389,228.702 241.600 C 229.451 249.987,226.424 261.657,222.807 264.332 C 222.158 264.811,220.900 266.275,220.011 267.583 C 218.290 270.117,216.843 271.385,214.089 272.768 C 213.148 273.241,211.412 274.503,210.231 275.572 C 204.464 280.795,186.448 280.725,180.482 275.457 C 179.667 274.737,178.190 273.679,177.200 273.106 C 176.210 272.533,174.590 271.232,173.600 270.215 L 171.800 268.366 171.546 264.283 C 170.975 255.092,180.354 252.218,190.549 258.459 L 192.497 259.652 196.149 259.152 C 200.068 258.616,201.082 258.115,205.600 254.482 C 211.643 249.623,212.336 238.495,206.812 235.007 C 205.949 234.463,204.086 232.825,202.671 231.368 L 200.098 228.718 196.585 228.332 C 192.224 227.853,191.895 227.937,189.215 230.224 C 186.491 232.550,185.872 232.798,181.222 233.426 C 175.211 234.238,173.240 232.813,171.600 226.469 L 170.600 222.600 171.468 219.400 C 171.945 217.640,173.134 212.854,174.110 208.764 C 175.407 203.328,176.336 200.400,177.560 197.882 C 179.072 194.773,179.506 193.267,181.394 184.589 C 181.678 183.286,184.346 180.443,186.143 179.531 C 187.054 179.069,188.774 177.995,189.965 177.145 L 192.130 175.600 203.965 175.595 C 215.722 175.590,215.824 175.597,219.378 176.682 M67.200 280.255 C 64.334 280.724,63.454 281.063,61.600 282.413 C 60.390 283.293,58.137 284.611,56.594 285.341 C 52.073 287.480,48.708 289.808,47.147 291.875 C 46.348 292.934,44.502 295.112,43.045 296.716 C 36.712 303.686,34.667 313.725,37.420 324.326 L 38.530 328.600 41.797 331.800 C 43.595 333.560,45.320 335.368,45.632 335.818 C 50.000 342.113,72.685 341.248,80.566 334.486 C 81.685 333.526,83.684 332.132,85.010 331.387 C 87.744 329.850,89.015 328.598,90.510 325.970 C 91.083 324.964,92.347 323.254,93.319 322.170 C 99.419 315.372,100.752 301.116,96.148 291.921 C 95.463 290.551,94.204 289.241,91.504 287.089 C 89.467 285.465,87.542 283.822,87.227 283.439 C 84.523 280.151,76.053 278.804,67.200 280.255 M322.802 281.258 C 321.307 281.505,319.899 282.113,318.402 283.156 C 317.191 284.000,315.310 285.080,314.222 285.557 C 311.410 286.789,309.726 288.189,308.214 290.547 C 307.491 291.676,306.168 293.483,305.274 294.563 C 300.811 299.955,301.483 312.866,306.630 320.600 C 307.801 322.360,309.446 325.060,310.286 326.600 C 311.585 328.985,312.160 329.606,314.167 330.792 C 315.463 331.558,317.634 333.191,318.992 334.422 C 324.548 339.457,336.342 341.420,347.200 339.117 L 351.400 338.226 354.862 334.713 C 356.766 332.781,358.512 331.200,358.742 331.200 C 363.063 331.200,364.662 311.224,360.999 303.000 C 360.009 300.777,351.698 290.209,350.051 289.079 C 348.495 288.011,344.014 285.780,342.329 285.234 C 341.519 284.971,339.785 284.064,338.474 283.216 C 335.013 280.980,329.010 280.229,322.802 281.258 " stroke="none" fill="none" fill-rule="evenodd"></path></g></svg>